<?xml version="1.0" encoding="utf-8" standalone="no"?>
<!DOCTYPE svg PUBLIC "-//W3C//DTD SVG 1.1//EN"
  "http://www.w3.org/Graphics/SVG/1.1/DTD/svg11.dtd">
<svg xmlns:xlink="http://www.w3.org/1999/xlink" width="864pt" height="576pt" viewBox="0 0 864 576" xmlns="http://www.w3.org/2000/svg" version="1.1">
 <metadata>
  <rdf:RDF xmlns:dc="http://purl.org/dc/elements/1.1/" xmlns:cc="http://creativecommons.org/ns#" xmlns:rdf="http://www.w3.org/1999/02/22-rdf-syntax-ns#">
   <cc:Work>
    <dc:type rdf:resource="http://purl.org/dc/dcmitype/StillImage"/>
    <dc:date>2025-02-14T16:02:41.850714</dc:date>
    <dc:format>image/svg+xml</dc:format>
    <dc:creator>
     <cc:Agent>
      <dc:title>Matplotlib v3.10.0, https://matplotlib.org/</dc:title>
     </cc:Agent>
    </dc:creator>
   </cc:Work>
  </rdf:RDF>
 </metadata>
 <defs>
  <style type="text/css">*{stroke-linejoin: round; stroke-linecap: butt}</style>
 </defs>
 <g id="figure_1">
  <g id="patch_1">
   <path d="M 0 576 
L 864 576 
L 864 0 
L 0 0 
z
" style="fill: #ffffff"/>
  </g>
  <g id="axes_1">
   <g id="patch_2">
    <path d="M 108 512.64 
L 777.6 512.64 
L 777.6 69.12 
L 108 69.12 
z
" style="fill: #eeeeee"/>
   </g>
   <g id="matplotlib.axis_1">
    <g id="xtick_1">
     <g id="line2d_1">
      <path d="M 138.436364 512.64 
L 138.436364 69.12 
" clip-path="url(#pe5cb9ac042)" style="fill: none; stroke-dasharray: 1.85,0.8; stroke-dashoffset: 0; stroke: #b2b2b2; stroke-width: 0.5"/>
     </g>
     <g id="text_1">
      <!-- 1 -->
      <g style="fill: #262626" transform="translate(135.390739 523.82625) scale(0.11 -0.11)">
       <defs>
        <path id="Cambria-31" d="M 2172 816 
Q 2172 634 2192 542 
Q 2213 450 2264 392 
Q 2316 334 2412 301 
Q 2509 269 2656 251 
Q 2803 234 3044 228 
L 3044 0 
L 734 0 
L 734 228 
Q 1081 244 1229 270 
Q 1378 297 1456 350 
Q 1534 403 1570 500 
Q 1606 597 1606 816 
L 1606 3350 
Q 1606 3475 1562 3533 
Q 1519 3591 1434 3591 
Q 1334 3591 1150 3487 
Q 966 3384 694 3203 
L 556 3444 
L 2019 4316 
L 2191 4316 
Q 2172 4016 2172 3484 
L 2172 816 
z
" transform="scale(0.015625)"/>
       </defs>
       <use xlink:href="#Cambria-31"/>
      </g>
     </g>
    </g>
    <g id="xtick_2">
     <g id="line2d_2">
      <path d="M 148.098701 512.64 
L 148.098701 69.12 
" clip-path="url(#pe5cb9ac042)" style="fill: none; stroke-dasharray: 1.85,0.8; stroke-dashoffset: 0; stroke: #b2b2b2; stroke-width: 0.5"/>
     </g>
     <g id="text_2">
      <!-- 2 -->
      <g style="fill: #262626" transform="translate(145.053076 523.82625) scale(0.11 -0.11)">
       <defs>
        <path id="Cambria-32" d="M 2194 500 
Q 2347 500 2440 519 
Q 2534 538 2590 581 
Q 2647 625 2680 695 
Q 2713 766 2763 913 
L 3028 913 
L 2975 0 
L 403 0 
L 403 150 
Q 538 478 766 822 
Q 994 1166 1413 1631 
Q 1775 2031 1934 2238 
Q 2109 2463 2195 2627 
Q 2281 2791 2318 2936 
Q 2356 3081 2356 3228 
Q 2356 3463 2281 3642 
Q 2206 3822 2051 3925 
Q 1897 4028 1663 4028 
Q 1078 4028 875 3378 
L 497 3378 
L 497 3978 
Q 875 4156 1204 4236 
Q 1534 4316 1797 4316 
Q 2378 4316 2675 4061 
Q 2972 3806 2972 3322 
Q 2972 3156 2939 3017 
Q 2906 2878 2836 2742 
Q 2766 2606 2647 2450 
Q 2528 2294 2384 2133 
Q 2241 1972 1888 1597 
Q 1294 969 1016 500 
L 2194 500 
z
" transform="scale(0.015625)"/>
       </defs>
       <use xlink:href="#Cambria-32"/>
      </g>
     </g>
    </g>
    <g id="xtick_3">
     <g id="line2d_3">
      <path d="M 167.423377 512.64 
L 167.423377 69.12 
" clip-path="url(#pe5cb9ac042)" style="fill: none; stroke-dasharray: 1.85,0.8; stroke-dashoffset: 0; stroke: #b2b2b2; stroke-width: 0.5"/>
     </g>
     <g id="text_3">
      <!-- 4 -->
      <g style="fill: #262626" transform="translate(164.377752 523.82625) scale(0.11 -0.11)">
       <defs>
        <path id="Cambria-34" d="M 1613 153 
Q 1806 203 1872 264 
Q 1938 325 1958 437 
Q 1978 550 1978 781 
L 1978 1294 
L 241 1294 
L 241 1528 
L 2069 4288 
L 2516 4288 
L 2516 1597 
L 2581 1597 
Q 2763 1597 2841 1623 
Q 2919 1650 2970 1717 
Q 3022 1784 3066 1938 
L 3303 1938 
L 3266 1294 
L 2516 1294 
L 2516 781 
Q 2516 572 2530 475 
Q 2544 378 2576 322 
Q 2609 266 2673 228 
Q 2738 191 2881 153 
L 2881 0 
L 1613 0 
L 1613 153 
z
M 756 1597 
L 1978 1597 
L 1978 2375 
Q 1978 2669 1987 3033 
Q 1997 3397 2009 3581 
L 1978 3581 
L 756 1641 
L 756 1597 
z
" transform="scale(0.015625)"/>
       </defs>
       <use xlink:href="#Cambria-34"/>
      </g>
     </g>
    </g>
    <g id="xtick_4">
     <g id="line2d_4">
      <path d="M 206.072727 512.64 
L 206.072727 69.12 
" clip-path="url(#pe5cb9ac042)" style="fill: none; stroke-dasharray: 1.85,0.8; stroke-dashoffset: 0; stroke: #b2b2b2; stroke-width: 0.5"/>
     </g>
     <g id="text_4">
      <!-- 8 -->
      <g style="fill: #262626" transform="translate(203.027102 523.82625) scale(0.11 -0.11)">
       <defs>
        <path id="Cambria-38" d="M 2475 2253 
L 2481 2213 
Q 2834 2075 3015 1811 
Q 3197 1547 3197 1175 
Q 3197 809 3022 531 
Q 2847 253 2514 101 
Q 2181 -50 1738 -50 
Q 1322 -50 1008 89 
Q 694 228 520 495 
Q 347 763 347 1125 
Q 347 1397 440 1597 
Q 534 1797 686 1926 
Q 838 2056 1069 2163 
L 1063 2203 
Q 391 2494 391 3200 
Q 391 3522 567 3775 
Q 744 4028 1070 4172 
Q 1397 4316 1794 4316 
Q 2244 4316 2550 4189 
Q 2856 4063 3011 3823 
Q 3166 3584 3166 3250 
Q 3166 2906 2997 2657 
Q 2828 2409 2475 2253 
z
M 978 3228 
Q 978 3044 1022 2881 
Q 1066 2719 1162 2600 
Q 1259 2481 1414 2411 
Q 1569 2341 1794 2341 
Q 2053 2341 2229 2442 
Q 2406 2544 2492 2739 
Q 2578 2934 2578 3191 
Q 2578 3472 2476 3667 
Q 2375 3863 2197 3956 
Q 2019 4050 1788 4050 
Q 1394 4050 1186 3836 
Q 978 3622 978 3228 
z
M 944 1178 
Q 944 975 991 798 
Q 1038 622 1139 494 
Q 1241 366 1400 291 
Q 1559 216 1788 216 
Q 2044 216 2226 320 
Q 2409 425 2504 631 
Q 2600 838 2600 1119 
Q 2600 1419 2497 1636 
Q 2394 1853 2206 1967 
Q 2019 2081 1772 2081 
Q 1541 2081 1383 2009 
Q 1225 1938 1126 1816 
Q 1028 1694 986 1530 
Q 944 1366 944 1178 
z
" transform="scale(0.015625)"/>
       </defs>
       <use xlink:href="#Cambria-38"/>
      </g>
     </g>
    </g>
    <g id="xtick_5">
     <g id="line2d_5">
      <path d="M 283.371429 512.64 
L 283.371429 69.12 
" clip-path="url(#pe5cb9ac042)" style="fill: none; stroke-dasharray: 1.85,0.8; stroke-dashoffset: 0; stroke: #b2b2b2; stroke-width: 0.5"/>
     </g>
     <g id="text_5">
      <!-- 16 -->
      <g style="fill: #262626" transform="translate(277.280179 523.82625) scale(0.11 -0.11)">
       <defs>
        <path id="Cambria-36" d="M 2847 4144 
L 2847 3991 
Q 2366 3991 1994 3784 
Q 1622 3578 1376 3178 
Q 1131 2778 1031 2228 
L 1063 2216 
Q 1325 2403 1579 2490 
Q 1834 2578 2131 2578 
Q 2484 2578 2732 2423 
Q 2981 2269 3106 1989 
Q 3231 1709 3231 1334 
Q 3231 928 3075 617 
Q 2919 306 2592 128 
Q 2266 -50 1788 -50 
Q 1103 -50 754 375 
Q 406 800 406 1628 
Q 406 2184 581 2668 
Q 756 3153 1078 3514 
Q 1400 3875 1825 4083 
Q 2250 4291 2719 4316 
L 2847 4144 
z
M 1916 2250 
Q 1763 2250 1620 2215 
Q 1478 2181 1353 2115 
Q 1228 2050 1109 1950 
Q 1072 1916 1053 1878 
Q 1022 1819 1012 1731 
Q 1003 1644 1003 1438 
Q 1003 841 1203 528 
Q 1403 216 1809 216 
Q 2044 216 2203 297 
Q 2363 378 2461 520 
Q 2559 663 2601 855 
Q 2644 1047 2644 1272 
Q 2644 1734 2453 1992 
Q 2263 2250 1916 2250 
z
" transform="scale(0.015625)"/>
       </defs>
       <use xlink:href="#Cambria-31"/>
       <use xlink:href="#Cambria-36" transform="translate(55.371094 0)"/>
      </g>
     </g>
    </g>
    <g id="xtick_6">
     <g id="line2d_6">
      <path d="M 437.968831 512.64 
L 437.968831 69.12 
" clip-path="url(#pe5cb9ac042)" style="fill: none; stroke-dasharray: 1.85,0.8; stroke-dashoffset: 0; stroke: #b2b2b2; stroke-width: 0.5"/>
     </g>
     <g id="text_6">
      <!-- 32 -->
      <g style="fill: #262626" transform="translate(431.877581 523.82625) scale(0.11 -0.11)">
       <defs>
        <path id="Cambria-33" d="M 497 3381 
L 497 3975 
Q 859 4147 1175 4231 
Q 1491 4316 1784 4316 
Q 2138 4316 2403 4206 
Q 2669 4097 2809 3892 
Q 2950 3688 2950 3403 
Q 2950 3138 2844 2936 
Q 2738 2734 2545 2584 
Q 2353 2434 2047 2291 
L 2047 2263 
Q 2238 2228 2414 2145 
Q 2591 2063 2728 1931 
Q 2866 1800 2948 1617 
Q 3031 1434 3031 1200 
Q 3031 838 2873 556 
Q 2716 275 2391 112 
Q 2066 -50 1600 -50 
Q 1331 -50 1020 11 
Q 709 72 450 172 
L 450 834 
L 825 834 
Q 934 509 1114 362 
Q 1294 216 1603 216 
Q 2009 216 2217 437 
Q 2425 659 2425 1094 
Q 2425 1550 2150 1790 
Q 1875 2031 1344 2031 
L 1063 2031 
L 1063 2306 
Q 1484 2331 1773 2468 
Q 2063 2606 2203 2822 
Q 2344 3038 2344 3306 
Q 2344 3653 2159 3840 
Q 1975 4028 1622 4028 
Q 1328 4028 1143 3868 
Q 959 3709 872 3381 
L 497 3381 
z
" transform="scale(0.015625)"/>
       </defs>
       <use xlink:href="#Cambria-33"/>
       <use xlink:href="#Cambria-32" transform="translate(55.371094 0)"/>
      </g>
     </g>
    </g>
    <g id="xtick_7">
     <g id="line2d_7">
      <path d="M 747.163636 512.64 
L 747.163636 69.12 
" clip-path="url(#pe5cb9ac042)" style="fill: none; stroke-dasharray: 1.85,0.8; stroke-dashoffset: 0; stroke: #b2b2b2; stroke-width: 0.5"/>
     </g>
     <g id="text_7">
      <!-- 64 -->
      <g style="fill: #262626" transform="translate(741.072386 523.82625) scale(0.11 -0.11)">
       <use xlink:href="#Cambria-36"/>
       <use xlink:href="#Cambria-34" transform="translate(55.371094 0)"/>
      </g>
     </g>
    </g>
    <g id="text_8">
     <!-- Number of Threads -->
     <g style="fill: #262626" transform="translate(382.996125 540.19825) scale(0.144 -0.144)">
      <defs>
       <path id="Cambria-4e" d="M 2888 1691 
Q 3000 1503 3076 1362 
Q 3153 1222 3234 1047 
L 3275 1047 
Q 3259 1238 3246 1805 
Q 3234 2372 3234 2828 
L 3234 3484 
Q 3234 3700 3221 3800 
Q 3209 3900 3176 3953 
Q 3144 4006 3086 4039 
Q 3028 4072 2884 4113 
L 2884 4266 
L 4009 4266 
L 4009 4113 
Q 3869 4075 3811 4044 
Q 3753 4013 3717 3963 
Q 3681 3913 3662 3813 
Q 3644 3713 3644 3484 
L 3644 -19 
L 3253 -19 
L 1513 2900 
Q 1350 3172 1281 3297 
Q 1213 3422 1153 3544 
L 1100 3544 
Q 1122 3303 1131 2673 
Q 1141 2044 1141 1419 
L 1141 781 
Q 1141 572 1155 475 
Q 1169 378 1201 322 
Q 1234 266 1298 228 
Q 1363 191 1506 153 
L 1506 0 
L 366 0 
L 366 153 
Q 559 203 625 264 
Q 691 325 711 437 
Q 731 550 731 781 
L 731 3484 
Q 731 3700 715 3798 
Q 700 3897 664 3951 
Q 628 4006 568 4039 
Q 509 4072 366 4113 
L 366 4266 
L 1344 4266 
L 2888 1691 
z
" transform="scale(0.015625)"/>
       <path id="Cambria-75" d="M 228 2988 
L 1119 2988 
L 1119 1397 
Q 1119 1031 1147 840 
Q 1175 650 1231 553 
Q 1288 456 1391 390 
Q 1494 325 1675 325 
Q 1794 325 1903 372 
Q 2013 419 2147 536 
Q 2281 653 2339 768 
Q 2397 884 2397 1038 
L 2397 2209 
Q 2397 2388 2387 2478 
Q 2378 2569 2356 2623 
Q 2334 2678 2304 2712 
Q 2275 2747 2220 2775 
Q 2166 2803 2044 2834 
L 2044 2988 
L 2934 2988 
L 2934 853 
Q 2934 613 2943 506 
Q 2953 400 2984 337 
Q 3016 275 3081 236 
Q 3147 197 3316 163 
L 3316 0 
L 2600 -31 
L 2409 -31 
L 2428 481 
L 2381 494 
Q 2122 213 1886 81 
Q 1650 -50 1413 -50 
Q 1128 -50 943 62 
Q 759 175 668 398 
Q 578 622 578 1028 
L 578 2209 
Q 578 2472 558 2570 
Q 538 2669 480 2726 
Q 422 2784 228 2834 
L 228 2988 
z
" transform="scale(0.015625)"/>
       <path id="Cambria-6d" d="M 1147 2506 
L 1191 2494 
Q 1378 2681 1498 2776 
Q 1619 2872 1731 2930 
Q 1844 2988 1942 3013 
Q 2041 3038 2144 3038 
Q 2456 3038 2653 2894 
Q 2850 2750 2925 2453 
Q 3159 2691 3304 2803 
Q 3450 2916 3601 2977 
Q 3753 3038 3928 3038 
Q 4138 3038 4289 2977 
Q 4441 2916 4545 2789 
Q 4650 2663 4698 2472 
Q 4747 2281 4747 1959 
L 4747 781 
Q 4747 544 4762 453 
Q 4778 363 4808 313 
Q 4838 263 4897 227 
Q 4956 191 5097 153 
L 5097 0 
L 3869 0 
L 3869 153 
Q 3991 191 4044 219 
Q 4097 247 4133 297 
Q 4169 347 4189 451 
Q 4209 556 4209 769 
L 4209 1588 
Q 4209 1853 4195 2026 
Q 4181 2200 4151 2303 
Q 4122 2406 4080 2465 
Q 4038 2525 3984 2569 
Q 3931 2613 3859 2638 
Q 3788 2663 3669 2663 
Q 3544 2663 3436 2613 
Q 3328 2563 3201 2444 
Q 3075 2325 3019 2204 
Q 2963 2084 2963 1922 
L 2963 781 
Q 2963 544 2978 453 
Q 2994 363 3023 313 
Q 3053 263 3112 227 
Q 3172 191 3313 153 
L 3313 0 
L 2084 0 
L 2084 153 
Q 2206 191 2259 219 
Q 2313 247 2348 297 
Q 2384 347 2404 451 
Q 2425 556 2425 769 
L 2425 1588 
Q 2425 1866 2409 2041 
Q 2394 2216 2361 2322 
Q 2328 2428 2276 2493 
Q 2225 2559 2172 2593 
Q 2119 2628 2047 2645 
Q 1975 2663 1884 2663 
Q 1756 2663 1643 2605 
Q 1531 2547 1414 2437 
Q 1297 2328 1237 2209 
Q 1178 2091 1178 1953 
L 1178 781 
Q 1178 603 1187 509 
Q 1197 416 1217 362 
Q 1238 309 1269 276 
Q 1300 244 1358 214 
Q 1416 184 1531 153 
L 1531 0 
L 306 0 
L 306 153 
Q 425 191 476 219 
Q 528 247 565 297 
Q 603 347 622 450 
Q 641 553 641 772 
L 641 2134 
Q 641 2334 634 2456 
Q 628 2578 590 2651 
Q 553 2725 476 2761 
Q 400 2797 259 2822 
L 259 2988 
L 991 3016 
L 1181 3016 
L 1147 2506 
z
" transform="scale(0.015625)"/>
       <path id="Cambria-62" d="M 1091 2497 
L 1103 2494 
Q 1322 2722 1467 2825 
Q 1613 2928 1767 2983 
Q 1922 3038 2106 3038 
Q 2441 3038 2680 2867 
Q 2919 2697 3048 2356 
Q 3178 2016 3178 1522 
Q 3178 1013 3023 661 
Q 2869 309 2567 129 
Q 2266 -50 1853 -50 
Q 1622 -50 1417 -8 
Q 1213 34 988 141 
L 769 -50 
L 553 0 
L 553 3397 
Q 553 3697 548 3815 
Q 544 3934 523 4017 
Q 503 4100 467 4147 
Q 431 4194 370 4222 
Q 309 4250 150 4278 
L 150 4441 
L 906 4472 
L 1091 4472 
L 1091 2497 
z
M 1091 1125 
Q 1091 884 1112 742 
Q 1134 600 1186 506 
Q 1238 413 1336 334 
Q 1434 256 1556 226 
Q 1678 197 1828 197 
Q 2203 197 2397 503 
Q 2591 809 2591 1422 
Q 2591 2041 2414 2352 
Q 2238 2663 1881 2663 
Q 1703 2663 1578 2608 
Q 1453 2553 1329 2437 
Q 1206 2322 1148 2209 
Q 1091 2097 1091 1953 
L 1091 1125 
z
" transform="scale(0.015625)"/>
       <path id="Cambria-65" d="M 2800 531 
Q 2600 322 2433 203 
Q 2266 84 2066 17 
Q 1866 -50 1625 -50 
Q 981 -50 653 336 
Q 325 722 325 1475 
Q 325 1941 492 2297 
Q 659 2653 968 2847 
Q 1278 3041 1681 3041 
Q 1997 3041 2219 2941 
Q 2441 2841 2573 2667 
Q 2706 2494 2779 2230 
Q 2853 1966 2863 1541 
L 894 1541 
L 894 1484 
Q 894 1116 976 864 
Q 1059 613 1248 470 
Q 1438 328 1741 328 
Q 1997 328 2201 423 
Q 2406 519 2609 734 
L 2800 531 
z
M 2275 1800 
Q 2256 2138 2190 2352 
Q 2125 2566 1994 2680 
Q 1863 2794 1650 2794 
Q 1328 2794 1136 2536 
Q 944 2278 909 1800 
L 2275 1800 
z
" transform="scale(0.015625)"/>
       <path id="Cambria-72" d="M 1147 2469 
L 1191 2459 
Q 1363 2669 1509 2789 
Q 1656 2909 1826 2975 
Q 1997 3041 2213 3041 
Q 2394 3041 2541 3022 
L 2541 2303 
L 2188 2303 
Q 2113 2472 2028 2548 
Q 1944 2625 1797 2625 
Q 1684 2625 1573 2559 
Q 1463 2494 1359 2369 
Q 1256 2244 1217 2134 
Q 1178 2025 1178 1875 
L 1178 781 
Q 1178 497 1212 389 
Q 1247 281 1326 231 
Q 1406 181 1566 153 
L 1566 0 
L 306 0 
L 306 153 
Q 425 191 476 219 
Q 528 247 565 297 
Q 603 347 622 450 
Q 641 553 641 772 
L 641 2134 
Q 641 2334 634 2456 
Q 628 2578 590 2651 
Q 553 2725 476 2761 
Q 400 2797 259 2822 
L 259 2984 
L 991 3016 
L 1181 3016 
L 1147 2469 
z
" transform="scale(0.015625)"/>
       <path id="Cambria-20" transform="scale(0.015625)"/>
       <path id="Cambria-6f" d="M 1663 -50 
Q 1013 -50 670 333 
Q 328 716 328 1466 
Q 328 1981 508 2337 
Q 688 2694 1000 2867 
Q 1313 3041 1713 3041 
Q 2381 3041 2725 2652 
Q 3069 2263 3069 1534 
Q 3069 1016 2897 659 
Q 2725 303 2409 126 
Q 2094 -50 1663 -50 
z
M 919 1531 
Q 919 888 1123 542 
Q 1328 197 1709 197 
Q 1919 197 2066 298 
Q 2213 400 2305 572 
Q 2397 744 2437 970 
Q 2478 1197 2478 1444 
Q 2478 1903 2376 2206 
Q 2275 2509 2100 2651 
Q 1925 2794 1700 2794 
Q 1322 2794 1120 2466 
Q 919 2138 919 1531 
z
" transform="scale(0.015625)"/>
       <path id="Cambria-66" d="M 1909 2672 
L 1163 2672 
L 1163 781 
Q 1163 572 1183 465 
Q 1203 359 1242 304 
Q 1281 250 1345 217 
Q 1409 184 1550 153 
L 1550 0 
L 272 0 
L 272 153 
Q 409 191 468 225 
Q 528 259 561 312 
Q 594 366 609 466 
Q 625 566 625 781 
L 625 2672 
L 247 2672 
L 247 2831 
Q 366 2850 405 2861 
Q 444 2872 480 2894 
Q 516 2916 542 2956 
Q 569 2997 589 3076 
Q 609 3156 622 3300 
Q 650 3641 745 3853 
Q 841 4066 1023 4216 
Q 1206 4366 1414 4427 
Q 1622 4488 1903 4488 
Q 2150 4488 2322 4453 
L 2322 3888 
L 2013 3888 
Q 1953 4072 1873 4148 
Q 1794 4225 1650 4225 
Q 1547 4225 1476 4197 
Q 1406 4169 1347 4109 
Q 1288 4050 1245 3950 
Q 1203 3850 1183 3701 
Q 1163 3553 1163 3316 
L 1163 2988 
L 1909 2988 
L 1909 2672 
z
" transform="scale(0.015625)"/>
       <path id="Cambria-54" d="M 206 4266 
L 3588 4266 
L 3588 3178 
L 3281 3178 
Q 3213 3447 3145 3603 
Q 3078 3759 3003 3840 
Q 2928 3922 2842 3956 
Q 2756 3991 2584 3991 
L 2188 3991 
L 2188 791 
Q 2188 606 2208 497 
Q 2228 388 2270 323 
Q 2313 259 2384 223 
Q 2456 188 2609 153 
L 2609 0 
L 1181 0 
L 1181 153 
Q 1275 175 1347 200 
Q 1419 225 1464 261 
Q 1509 297 1539 353 
Q 1569 409 1586 506 
Q 1603 603 1603 791 
L 1603 3991 
L 1209 3991 
Q 1063 3991 967 3962 
Q 872 3934 790 3845 
Q 709 3756 642 3592 
Q 575 3428 516 3178 
L 206 3178 
L 206 4266 
z
" transform="scale(0.015625)"/>
       <path id="Cambria-68" d="M 1141 2497 
L 1153 2494 
Q 1397 2741 1539 2839 
Q 1681 2938 1820 2988 
Q 1959 3038 2119 3038 
Q 2291 3038 2425 2997 
Q 2559 2956 2661 2873 
Q 2763 2791 2827 2670 
Q 2891 2550 2922 2383 
Q 2953 2216 2953 1959 
L 2953 781 
Q 2953 509 2976 411 
Q 3000 313 3061 258 
Q 3122 203 3306 153 
L 3306 0 
L 2075 0 
L 2075 153 
Q 2197 191 2250 219 
Q 2303 247 2339 297 
Q 2375 347 2395 451 
Q 2416 556 2416 769 
L 2416 1588 
Q 2416 2003 2373 2223 
Q 2331 2444 2207 2553 
Q 2084 2663 1863 2663 
Q 1738 2663 1638 2619 
Q 1538 2575 1406 2462 
Q 1275 2350 1208 2231 
Q 1141 2113 1141 1978 
L 1141 781 
Q 1141 569 1152 478 
Q 1163 388 1194 327 
Q 1225 266 1289 227 
Q 1353 188 1488 153 
L 1488 0 
L 250 0 
L 250 153 
Q 388 191 447 225 
Q 506 259 539 312 
Q 572 366 587 466 
Q 603 566 603 781 
L 603 3397 
Q 603 3697 598 3815 
Q 594 3934 573 4017 
Q 553 4100 517 4147 
Q 481 4194 420 4222 
Q 359 4250 200 4278 
L 200 4441 
L 953 4472 
L 1141 4472 
L 1141 2497 
z
" transform="scale(0.015625)"/>
       <path id="Cambria-61" d="M 2109 447 
L 2063 459 
Q 1791 181 1552 65 
Q 1313 -50 1044 -50 
Q 806 -50 625 42 
Q 444 134 347 301 
Q 250 469 250 688 
Q 250 1144 701 1392 
Q 1153 1641 2056 1681 
L 2056 1884 
Q 2056 2209 1993 2396 
Q 1931 2584 1797 2671 
Q 1663 2759 1438 2759 
Q 1194 2759 1045 2631 
Q 897 2503 822 2247 
L 413 2247 
L 413 2653 
Q 713 2809 913 2882 
Q 1113 2956 1313 2998 
Q 1513 3041 1719 3041 
Q 2028 3041 2215 2942 
Q 2403 2844 2497 2641 
Q 2591 2438 2591 2028 
L 2591 941 
Q 2591 709 2594 614 
Q 2597 519 2612 437 
Q 2628 356 2659 307 
Q 2691 259 2752 225 
Q 2813 191 2950 153 
L 2950 0 
L 2094 0 
L 2109 447 
z
M 2056 1425 
Q 1422 1419 1106 1256 
Q 791 1094 791 766 
Q 791 588 862 484 
Q 934 381 1043 342 
Q 1153 303 1303 303 
Q 1516 303 1689 406 
Q 1863 509 1959 668 
Q 2056 828 2056 984 
L 2056 1425 
z
" transform="scale(0.015625)"/>
       <path id="Cambria-64" d="M 2413 3397 
Q 2413 3697 2408 3815 
Q 2403 3934 2383 4017 
Q 2363 4100 2327 4147 
Q 2291 4194 2230 4222 
Q 2169 4250 2009 4278 
L 2009 4441 
L 2766 4472 
L 2950 4472 
L 2950 853 
Q 2950 609 2959 504 
Q 2969 400 3000 337 
Q 3031 275 3098 236 
Q 3166 197 3334 163 
L 3334 0 
L 2597 -31 
L 2409 -31 
L 2447 481 
L 2400 494 
Q 2203 284 2058 179 
Q 1913 75 1748 12 
Q 1584 -50 1397 -50 
Q 884 -50 606 339 
Q 328 728 328 1463 
Q 328 1975 509 2333 
Q 691 2691 998 2866 
Q 1306 3041 1691 3041 
Q 1897 3041 2065 3008 
Q 2234 2975 2413 2900 
L 2413 3397 
z
M 2413 1853 
Q 2413 2097 2391 2244 
Q 2369 2391 2317 2491 
Q 2266 2591 2178 2659 
Q 2091 2728 1986 2759 
Q 1881 2791 1734 2791 
Q 1334 2791 1125 2470 
Q 916 2150 916 1550 
Q 916 950 1087 637 
Q 1259 325 1609 325 
Q 1747 325 1837 348 
Q 1928 372 2015 423 
Q 2103 475 2193 565 
Q 2284 656 2326 731 
Q 2369 806 2391 903 
Q 2413 1000 2413 1153 
L 2413 1853 
z
" transform="scale(0.015625)"/>
       <path id="Cambria-73" d="M 2397 2303 
L 2097 2303 
Q 2028 2491 1934 2598 
Q 1841 2706 1722 2750 
Q 1603 2794 1431 2794 
Q 1181 2794 1032 2676 
Q 884 2559 884 2356 
Q 884 2213 943 2119 
Q 1003 2025 1128 1944 
Q 1253 1863 1569 1728 
Q 1888 1591 2061 1475 
Q 2234 1359 2332 1206 
Q 2431 1053 2431 841 
Q 2431 594 2347 425 
Q 2263 256 2109 150 
Q 1956 44 1745 -3 
Q 1534 -50 1284 -50 
Q 1022 -50 775 -11 
Q 528 28 294 91 
L 294 744 
L 600 744 
Q 684 456 850 326 
Q 1016 197 1306 197 
Q 1419 197 1526 220 
Q 1634 244 1718 298 
Q 1803 353 1853 447 
Q 1903 541 1903 681 
Q 1903 841 1840 941 
Q 1778 1041 1647 1123 
Q 1516 1206 1184 1347 
Q 900 1466 728 1578 
Q 556 1691 457 1844 
Q 359 1997 359 2206 
Q 359 2463 498 2652 
Q 638 2841 900 2941 
Q 1163 3041 1516 3041 
Q 1722 3041 1914 3020 
Q 2106 3000 2397 2941 
L 2397 2303 
z
" transform="scale(0.015625)"/>
      </defs>
      <use xlink:href="#Cambria-4e"/>
      <use xlink:href="#Cambria-75" transform="translate(68.066406 0)"/>
      <use xlink:href="#Cambria-6d" transform="translate(123.291016 0)"/>
      <use xlink:href="#Cambria-62" transform="translate(206.494141 0)"/>
      <use xlink:href="#Cambria-65" transform="translate(261.230469 0)"/>
      <use xlink:href="#Cambria-72" transform="translate(310.009766 0)"/>
      <use xlink:href="#Cambria-20" transform="translate(351.367188 0)"/>
      <use xlink:href="#Cambria-6f" transform="translate(373.388672 0)"/>
      <use xlink:href="#Cambria-66" transform="translate(426.464844 0)"/>
      <use xlink:href="#Cambria-20" transform="translate(456.738281 0)"/>
      <use xlink:href="#Cambria-54" transform="translate(478.759766 0)"/>
      <use xlink:href="#Cambria-68" transform="translate(538.037109 0)"/>
      <use xlink:href="#Cambria-72" transform="translate(593.212891 0)"/>
      <use xlink:href="#Cambria-65" transform="translate(634.570312 0)"/>
      <use xlink:href="#Cambria-61" transform="translate(683.349609 0)"/>
      <use xlink:href="#Cambria-64" transform="translate(732.177734 0)"/>
      <use xlink:href="#Cambria-73" transform="translate(787.646484 0)"/>
     </g>
    </g>
   </g>
   <g id="matplotlib.axis_2">
    <g id="ytick_1">
     <g id="line2d_8">
      <path d="M 108 505.924858 
L 777.6 505.924858 
" clip-path="url(#pe5cb9ac042)" style="fill: none; stroke-dasharray: 1.85,0.8; stroke-dashoffset: 0; stroke: #b2b2b2; stroke-width: 0.5"/>
     </g>
     <g id="text_9">
      <!-- 0.0 -->
      <g style="fill: #262626" transform="translate(90.060781 509.767983) scale(0.11 -0.11)">
       <defs>
        <path id="Cambria-30" d="M 1738 -50 
Q 1063 -50 733 481 
Q 403 1013 403 2094 
Q 403 2669 504 3087 
Q 606 3506 789 3779 
Q 972 4053 1228 4184 
Q 1484 4316 1788 4316 
Q 2472 4316 2806 3787 
Q 3141 3259 3141 2191 
Q 3141 1084 2783 517 
Q 2425 -50 1738 -50 
z
M 1013 2188 
Q 1013 1169 1202 692 
Q 1391 216 1788 216 
Q 2166 216 2348 664 
Q 2531 1113 2531 2053 
Q 2531 2772 2437 3217 
Q 2344 3663 2176 3856 
Q 2009 4050 1772 4050 
Q 1556 4050 1411 3922 
Q 1266 3794 1177 3553 
Q 1088 3313 1050 2967 
Q 1013 2622 1013 2188 
z
" transform="scale(0.015625)"/>
        <path id="Cambria-2e" d="M 972 725 
L 972 0 
L 341 0 
L 341 725 
L 972 725 
z
" transform="scale(0.015625)"/>
       </defs>
       <use xlink:href="#Cambria-30"/>
       <use xlink:href="#Cambria-2e" transform="translate(55.371094 0)"/>
       <use xlink:href="#Cambria-30" transform="translate(75.878906 0)"/>
      </g>
     </g>
    </g>
    <g id="ytick_2">
     <g id="line2d_9">
      <path d="M 108 433.052998 
L 777.6 433.052998 
" clip-path="url(#pe5cb9ac042)" style="fill: none; stroke-dasharray: 1.85,0.8; stroke-dashoffset: 0; stroke: #b2b2b2; stroke-width: 0.5"/>
     </g>
     <g id="text_10">
      <!-- 0.2 -->
      <g style="fill: #262626" transform="translate(90.060781 436.896123) scale(0.11 -0.11)">
       <use xlink:href="#Cambria-30"/>
       <use xlink:href="#Cambria-2e" transform="translate(55.371094 0)"/>
       <use xlink:href="#Cambria-32" transform="translate(75.878906 0)"/>
      </g>
     </g>
    </g>
    <g id="ytick_3">
     <g id="line2d_10">
      <path d="M 108 360.181139 
L 777.6 360.181139 
" clip-path="url(#pe5cb9ac042)" style="fill: none; stroke-dasharray: 1.85,0.8; stroke-dashoffset: 0; stroke: #b2b2b2; stroke-width: 0.5"/>
     </g>
     <g id="text_11">
      <!-- 0.4 -->
      <g style="fill: #262626" transform="translate(90.060781 364.024264) scale(0.11 -0.11)">
       <use xlink:href="#Cambria-30"/>
       <use xlink:href="#Cambria-2e" transform="translate(55.371094 0)"/>
       <use xlink:href="#Cambria-34" transform="translate(75.878906 0)"/>
      </g>
     </g>
    </g>
    <g id="ytick_4">
     <g id="line2d_11">
      <path d="M 108 287.309279 
L 777.6 287.309279 
" clip-path="url(#pe5cb9ac042)" style="fill: none; stroke-dasharray: 1.85,0.8; stroke-dashoffset: 0; stroke: #b2b2b2; stroke-width: 0.5"/>
     </g>
     <g id="text_12">
      <!-- 0.6 -->
      <g style="fill: #262626" transform="translate(90.060781 291.152404) scale(0.11 -0.11)">
       <use xlink:href="#Cambria-30"/>
       <use xlink:href="#Cambria-2e" transform="translate(55.371094 0)"/>
       <use xlink:href="#Cambria-36" transform="translate(75.878906 0)"/>
      </g>
     </g>
    </g>
    <g id="ytick_5">
     <g id="line2d_12">
      <path d="M 108 214.437419 
L 777.6 214.437419 
" clip-path="url(#pe5cb9ac042)" style="fill: none; stroke-dasharray: 1.85,0.8; stroke-dashoffset: 0; stroke: #b2b2b2; stroke-width: 0.5"/>
     </g>
     <g id="text_13">
      <!-- 0.8 -->
      <g style="fill: #262626" transform="translate(90.060781 218.280544) scale(0.11 -0.11)">
       <use xlink:href="#Cambria-30"/>
       <use xlink:href="#Cambria-2e" transform="translate(55.371094 0)"/>
       <use xlink:href="#Cambria-38" transform="translate(75.878906 0)"/>
      </g>
     </g>
    </g>
    <g id="ytick_6">
     <g id="line2d_13">
      <path d="M 108 141.565559 
L 777.6 141.565559 
" clip-path="url(#pe5cb9ac042)" style="fill: none; stroke-dasharray: 1.85,0.8; stroke-dashoffset: 0; stroke: #b2b2b2; stroke-width: 0.5"/>
     </g>
     <g id="text_14">
      <!-- 1.0 -->
      <g style="fill: #262626" transform="translate(90.060781 145.408684) scale(0.11 -0.11)">
       <use xlink:href="#Cambria-31"/>
       <use xlink:href="#Cambria-2e" transform="translate(55.371094 0)"/>
       <use xlink:href="#Cambria-30" transform="translate(75.878906 0)"/>
      </g>
     </g>
    </g>
    <g id="text_15">
     <!-- Loop Time (s) -->
     <g style="fill: #262626" transform="translate(83.003031 333.92475) rotate(-90) scale(0.144 -0.144)">
      <defs>
       <path id="Cambria-4c" d="M 1328 288 
L 2147 288 
Q 2281 288 2372 303 
Q 2463 319 2527 351 
Q 2591 384 2642 442 
Q 2694 500 2741 594 
Q 2788 688 2830 830 
Q 2872 972 2934 1256 
L 3250 1256 
L 3188 0 
L 378 0 
L 378 153 
Q 572 203 637 264 
Q 703 325 723 437 
Q 744 550 744 781 
L 744 3484 
Q 744 3700 728 3798 
Q 713 3897 677 3951 
Q 641 4006 581 4039 
Q 522 4072 378 4113 
L 378 4266 
L 1694 4266 
L 1694 4113 
Q 1556 4075 1498 4045 
Q 1441 4016 1403 3966 
Q 1366 3916 1347 3812 
Q 1328 3709 1328 3484 
L 1328 288 
z
" transform="scale(0.015625)"/>
       <path id="Cambria-70" d="M 1150 94 
L 1150 -566 
Q 1150 -769 1164 -869 
Q 1178 -969 1214 -1026 
Q 1250 -1084 1317 -1121 
Q 1384 -1159 1534 -1191 
L 1534 -1344 
L 259 -1344 
L 259 -1191 
Q 372 -1159 442 -1126 
Q 513 -1094 550 -1030 
Q 588 -966 600 -856 
Q 613 -747 613 -566 
L 613 2116 
Q 613 2341 606 2436 
Q 600 2531 581 2593 
Q 563 2656 527 2697 
Q 491 2738 430 2766 
Q 369 2794 228 2822 
L 228 2988 
L 963 3016 
L 1153 3016 
L 1113 2506 
L 1159 2494 
Q 1353 2691 1465 2780 
Q 1578 2869 1698 2928 
Q 1819 2988 1930 3013 
Q 2041 3038 2166 3038 
Q 2681 3038 2957 2652 
Q 3234 2266 3234 1522 
Q 3234 1006 3078 654 
Q 2922 303 2623 126 
Q 2325 -50 1913 -50 
Q 1681 -50 1493 -11 
Q 1306 28 1150 94 
z
M 1150 1125 
Q 1150 825 1187 662 
Q 1225 500 1320 398 
Q 1416 297 1545 247 
Q 1675 197 1888 197 
Q 2266 197 2456 511 
Q 2647 825 2647 1438 
Q 2647 2663 1931 2663 
Q 1756 2663 1629 2608 
Q 1503 2553 1378 2431 
Q 1253 2309 1201 2195 
Q 1150 2081 1150 1950 
L 1150 1125 
z
" transform="scale(0.015625)"/>
       <path id="Cambria-69" d="M 1197 4213 
L 1197 3606 
L 622 3606 
L 622 4213 
L 1197 4213 
z
M 303 153 
Q 425 191 476 219 
Q 528 247 564 297 
Q 600 347 620 450 
Q 641 553 641 772 
L 641 2134 
Q 641 2334 634 2456 
Q 628 2578 590 2651 
Q 553 2725 476 2761 
Q 400 2797 259 2822 
L 259 2988 
L 988 3016 
L 1178 3016 
L 1178 781 
Q 1178 513 1203 408 
Q 1228 303 1298 248 
Q 1369 194 1528 153 
L 1528 0 
L 303 0 
L 303 153 
z
" transform="scale(0.015625)"/>
       <path id="Cambria-28" d="M 2309 -1359 
Q 1778 -1359 1442 -1200 
Q 1106 -1041 918 -714 
Q 731 -388 647 134 
Q 563 656 563 1550 
Q 563 2438 645 2964 
Q 728 3491 915 3822 
Q 1103 4153 1440 4318 
Q 1778 4484 2309 4484 
L 2309 4228 
Q 2091 4228 1922 4191 
Q 1731 4147 1597 4022 
Q 1447 3884 1353 3638 
Q 1244 3350 1191 2875 
Q 1134 2372 1134 1575 
Q 1134 872 1181 379 
Q 1228 -113 1338 -425 
Q 1425 -688 1556 -834 
Q 1672 -963 1831 -1028 
Q 2016 -1103 2309 -1103 
L 2309 -1359 
z
" transform="scale(0.015625)"/>
       <path id="Cambria-29" d="M 134 4484 
Q 666 4484 1002 4325 
Q 1338 4166 1525 3839 
Q 1713 3513 1797 2991 
Q 1881 2469 1881 1575 
Q 1881 688 1798 161 
Q 1716 -366 1528 -697 
Q 1341 -1028 1003 -1193 
Q 666 -1359 134 -1359 
L 134 -1103 
Q 353 -1103 522 -1066 
Q 713 -1022 847 -897 
Q 997 -759 1091 -513 
Q 1200 -225 1253 250 
Q 1309 753 1309 1550 
Q 1309 2253 1262 2745 
Q 1216 3238 1106 3550 
Q 1019 3813 888 3959 
Q 772 4088 613 4153 
Q 428 4228 134 4228 
L 134 4484 
z
" transform="scale(0.015625)"/>
      </defs>
      <use xlink:href="#Cambria-4c"/>
      <use xlink:href="#Cambria-6f" transform="translate(53.662109 0)"/>
      <use xlink:href="#Cambria-6f" transform="translate(106.738281 0)"/>
      <use xlink:href="#Cambria-70" transform="translate(159.814453 0)"/>
      <use xlink:href="#Cambria-20" transform="translate(215.429688 0)"/>
      <use xlink:href="#Cambria-54" transform="translate(237.451172 0)"/>
      <use xlink:href="#Cambria-69" transform="translate(296.728516 0)"/>
      <use xlink:href="#Cambria-6d" transform="translate(324.511719 0)"/>
      <use xlink:href="#Cambria-65" transform="translate(407.714844 0)"/>
      <use xlink:href="#Cambria-20" transform="translate(456.494141 0)"/>
      <use xlink:href="#Cambria-28" transform="translate(478.515625 0)"/>
      <use xlink:href="#Cambria-73" transform="translate(516.699219 0)"/>
      <use xlink:href="#Cambria-29" transform="translate(559.667969 0)"/>
     </g>
    </g>
   </g>
   <g id="FillBetweenPolyCollection_1"/>
   <g id="FillBetweenPolyCollection_2"/>
   <g id="FillBetweenPolyCollection_3"/>
   <g id="FillBetweenPolyCollection_4"/>
   <g id="FillBetweenPolyCollection_5"/>
   <g id="FillBetweenPolyCollection_6"/>
   <g id="FillBetweenPolyCollection_7"/>
   <g id="FillBetweenPolyCollection_8"/>
   <g id="line2d_14">
    <path d="M 138.436364 444.785368 
L 148.098701 470.035467 
L 167.423377 485.520737 
L 206.072727 486.358764 
L 283.371429 451.015912 
L 437.968831 428.680687 
L 747.163636 428.972174 
" clip-path="url(#pe5cb9ac042)" style="fill: none; stroke: #348abd; stroke-width: 2; stroke-linecap: round"/>
    <defs>
     <path id="m4ae45108b0" d="M 0 3 
C 0.795609 3 1.55874 2.683901 2.12132 2.12132 
C 2.683901 1.55874 3 0.795609 3 0 
C 3 -0.795609 2.683901 -1.55874 2.12132 -2.12132 
C 1.55874 -2.683901 0.795609 -3 0 -3 
C -0.795609 -3 -1.55874 -2.683901 -2.12132 -2.12132 
C -2.683901 -1.55874 -3 -0.795609 -3 0 
C -3 0.795609 -2.683901 1.55874 -2.12132 2.12132 
C -1.55874 2.683901 -0.795609 3 0 3 
z
" style="stroke: #ffffff; stroke-width: 0.75"/>
    </defs>
    <g clip-path="url(#pe5cb9ac042)">
     <use xlink:href="#m4ae45108b0" x="138.436364" y="444.785368" style="fill: #348abd; stroke: #ffffff; stroke-width: 0.75"/>
     <use xlink:href="#m4ae45108b0" x="148.098701" y="470.035467" style="fill: #348abd; stroke: #ffffff; stroke-width: 0.75"/>
     <use xlink:href="#m4ae45108b0" x="167.423377" y="485.520737" style="fill: #348abd; stroke: #ffffff; stroke-width: 0.75"/>
     <use xlink:href="#m4ae45108b0" x="206.072727" y="486.358764" style="fill: #348abd; stroke: #ffffff; stroke-width: 0.75"/>
     <use xlink:href="#m4ae45108b0" x="283.371429" y="451.015912" style="fill: #348abd; stroke: #ffffff; stroke-width: 0.75"/>
     <use xlink:href="#m4ae45108b0" x="437.968831" y="428.680687" style="fill: #348abd; stroke: #ffffff; stroke-width: 0.75"/>
     <use xlink:href="#m4ae45108b0" x="747.163636" y="428.972174" style="fill: #348abd; stroke: #ffffff; stroke-width: 0.75"/>
    </g>
   </g>
   <g id="line2d_15">
    <path d="M 138.436364 444.967547 
L 148.098701 471.128545 
L 167.423377 485.156378 
L 206.072727 486.759559 
L 283.371429 460.452818 
L 437.968831 440.37662 
L 747.163636 441.834057 
" clip-path="url(#pe5cb9ac042)" style="fill: none; stroke: #a60628; stroke-width: 2; stroke-linecap: round"/>
    <defs>
     <path id="m6d5e199666" d="M 0 3 
C 0.795609 3 1.55874 2.683901 2.12132 2.12132 
C 2.683901 1.55874 3 0.795609 3 0 
C 3 -0.795609 2.683901 -1.55874 2.12132 -2.12132 
C 1.55874 -2.683901 0.795609 -3 0 -3 
C -0.795609 -3 -1.55874 -2.683901 -2.12132 -2.12132 
C -2.683901 -1.55874 -3 -0.795609 -3 0 
C -3 0.795609 -2.683901 1.55874 -2.12132 2.12132 
C -1.55874 2.683901 -0.795609 3 0 3 
z
" style="stroke: #ffffff; stroke-width: 0.75"/>
    </defs>
    <g clip-path="url(#pe5cb9ac042)">
     <use xlink:href="#m6d5e199666" x="138.436364" y="444.967547" style="fill: #a60628; stroke: #ffffff; stroke-width: 0.75"/>
     <use xlink:href="#m6d5e199666" x="148.098701" y="471.128545" style="fill: #a60628; stroke: #ffffff; stroke-width: 0.75"/>
     <use xlink:href="#m6d5e199666" x="167.423377" y="485.156378" style="fill: #a60628; stroke: #ffffff; stroke-width: 0.75"/>
     <use xlink:href="#m6d5e199666" x="206.072727" y="486.759559" style="fill: #a60628; stroke: #ffffff; stroke-width: 0.75"/>
     <use xlink:href="#m6d5e199666" x="283.371429" y="460.452818" style="fill: #a60628; stroke: #ffffff; stroke-width: 0.75"/>
     <use xlink:href="#m6d5e199666" x="437.968831" y="440.37662" style="fill: #a60628; stroke: #ffffff; stroke-width: 0.75"/>
     <use xlink:href="#m6d5e199666" x="747.163636" y="441.834057" style="fill: #a60628; stroke: #ffffff; stroke-width: 0.75"/>
    </g>
   </g>
   <g id="line2d_16">
    <path d="M 138.436364 435.712821 
L 148.098701 466.756234 
L 167.423377 484.24548 
L 206.072727 476.776114 
L 283.371429 389.43919 
L 437.968831 217.534473 
L 747.163636 285.59679 
" clip-path="url(#pe5cb9ac042)" style="fill: none; stroke: #7a68a6; stroke-width: 2; stroke-linecap: round"/>
    <defs>
     <path id="m97c0eaab34" d="M 0 3 
C 0.795609 3 1.55874 2.683901 2.12132 2.12132 
C 2.683901 1.55874 3 0.795609 3 0 
C 3 -0.795609 2.683901 -1.55874 2.12132 -2.12132 
C 1.55874 -2.683901 0.795609 -3 0 -3 
C -0.795609 -3 -1.55874 -2.683901 -2.12132 -2.12132 
C -2.683901 -1.55874 -3 -0.795609 -3 0 
C -3 0.795609 -2.683901 1.55874 -2.12132 2.12132 
C -1.55874 2.683901 -0.795609 3 0 3 
z
" style="stroke: #ffffff; stroke-width: 0.75"/>
    </defs>
    <g clip-path="url(#pe5cb9ac042)">
     <use xlink:href="#m97c0eaab34" x="138.436364" y="435.712821" style="fill: #7a68a6; stroke: #ffffff; stroke-width: 0.75"/>
     <use xlink:href="#m97c0eaab34" x="148.098701" y="466.756234" style="fill: #7a68a6; stroke: #ffffff; stroke-width: 0.75"/>
     <use xlink:href="#m97c0eaab34" x="167.423377" y="484.24548" style="fill: #7a68a6; stroke: #ffffff; stroke-width: 0.75"/>
     <use xlink:href="#m97c0eaab34" x="206.072727" y="476.776114" style="fill: #7a68a6; stroke: #ffffff; stroke-width: 0.75"/>
     <use xlink:href="#m97c0eaab34" x="283.371429" y="389.43919" style="fill: #7a68a6; stroke: #ffffff; stroke-width: 0.75"/>
     <use xlink:href="#m97c0eaab34" x="437.968831" y="217.534473" style="fill: #7a68a6; stroke: #ffffff; stroke-width: 0.75"/>
     <use xlink:href="#m97c0eaab34" x="747.163636" y="285.59679" style="fill: #7a68a6; stroke: #ffffff; stroke-width: 0.75"/>
    </g>
   </g>
   <g id="line2d_17">
    <path d="M 138.436364 437.170258 
L 148.098701 469.416056 
L 167.423377 485.630045 
L 206.072727 492.48 
L 283.371429 480.492579 
L 437.968831 467.302772 
L 747.163636 480.237528 
" clip-path="url(#pe5cb9ac042)" style="fill: none; stroke: #467821; stroke-width: 2; stroke-linecap: round"/>
    <defs>
     <path id="ma38fa2afde" d="M 0 3 
C 0.795609 3 1.55874 2.683901 2.12132 2.12132 
C 2.683901 1.55874 3 0.795609 3 0 
C 3 -0.795609 2.683901 -1.55874 2.12132 -2.12132 
C 1.55874 -2.683901 0.795609 -3 0 -3 
C -0.795609 -3 -1.55874 -2.683901 -2.12132 -2.12132 
C -2.683901 -1.55874 -3 -0.795609 -3 0 
C -3 0.795609 -2.683901 1.55874 -2.12132 2.12132 
C -1.55874 2.683901 -0.795609 3 0 3 
z
" style="stroke: #ffffff; stroke-width: 0.75"/>
    </defs>
    <g clip-path="url(#pe5cb9ac042)">
     <use xlink:href="#ma38fa2afde" x="138.436364" y="437.170258" style="fill: #467821; stroke: #ffffff; stroke-width: 0.75"/>
     <use xlink:href="#ma38fa2afde" x="148.098701" y="469.416056" style="fill: #467821; stroke: #ffffff; stroke-width: 0.75"/>
     <use xlink:href="#ma38fa2afde" x="167.423377" y="485.630045" style="fill: #467821; stroke: #ffffff; stroke-width: 0.75"/>
     <use xlink:href="#ma38fa2afde" x="206.072727" y="492.48" style="fill: #467821; stroke: #ffffff; stroke-width: 0.75"/>
     <use xlink:href="#ma38fa2afde" x="283.371429" y="480.492579" style="fill: #467821; stroke: #ffffff; stroke-width: 0.75"/>
     <use xlink:href="#ma38fa2afde" x="437.968831" y="467.302772" style="fill: #467821; stroke: #ffffff; stroke-width: 0.75"/>
     <use xlink:href="#ma38fa2afde" x="747.163636" y="480.237528" style="fill: #467821; stroke: #ffffff; stroke-width: 0.75"/>
    </g>
   </g>
   <g id="line2d_18">
    <path d="M 138.436364 434.874795 
L 148.098701 464.570078 
L 167.423377 472.403803 
L 206.072727 466.42831 
L 283.371429 399.167584 
L 437.968831 358.432214 
L 747.163636 357.047649 
" clip-path="url(#pe5cb9ac042)" style="fill: none; stroke: #d55e00; stroke-width: 2; stroke-linecap: round"/>
    <defs>
     <path id="ma61aa7d226" d="M 0 3 
C 0.795609 3 1.55874 2.683901 2.12132 2.12132 
C 2.683901 1.55874 3 0.795609 3 0 
C 3 -0.795609 2.683901 -1.55874 2.12132 -2.12132 
C 1.55874 -2.683901 0.795609 -3 0 -3 
C -0.795609 -3 -1.55874 -2.683901 -2.12132 -2.12132 
C -2.683901 -1.55874 -3 -0.795609 -3 0 
C -3 0.795609 -2.683901 1.55874 -2.12132 2.12132 
C -1.55874 2.683901 -0.795609 3 0 3 
z
" style="stroke: #ffffff; stroke-width: 0.75"/>
    </defs>
    <g clip-path="url(#pe5cb9ac042)">
     <use xlink:href="#ma61aa7d226" x="138.436364" y="434.874795" style="fill: #d55e00; stroke: #ffffff; stroke-width: 0.75"/>
     <use xlink:href="#ma61aa7d226" x="148.098701" y="464.570078" style="fill: #d55e00; stroke: #ffffff; stroke-width: 0.75"/>
     <use xlink:href="#ma61aa7d226" x="167.423377" y="472.403803" style="fill: #d55e00; stroke: #ffffff; stroke-width: 0.75"/>
     <use xlink:href="#ma61aa7d226" x="206.072727" y="466.42831" style="fill: #d55e00; stroke: #ffffff; stroke-width: 0.75"/>
     <use xlink:href="#ma61aa7d226" x="283.371429" y="399.167584" style="fill: #d55e00; stroke: #ffffff; stroke-width: 0.75"/>
     <use xlink:href="#ma61aa7d226" x="437.968831" y="358.432214" style="fill: #d55e00; stroke: #ffffff; stroke-width: 0.75"/>
     <use xlink:href="#ma61aa7d226" x="747.163636" y="357.047649" style="fill: #d55e00; stroke: #ffffff; stroke-width: 0.75"/>
    </g>
   </g>
   <g id="line2d_19">
    <path d="M 138.436364 436.805899 
L 148.098701 468.322978 
L 167.423377 484.828455 
L 206.072727 472.69529 
L 283.371429 380.621695 
L 437.968831 219.538449 
L 747.163636 339.84989 
" clip-path="url(#pe5cb9ac042)" style="fill: none; stroke: #cc79a7; stroke-width: 2; stroke-linecap: round"/>
    <defs>
     <path id="m524cef141e" d="M 0 3 
C 0.795609 3 1.55874 2.683901 2.12132 2.12132 
C 2.683901 1.55874 3 0.795609 3 0 
C 3 -0.795609 2.683901 -1.55874 2.12132 -2.12132 
C 1.55874 -2.683901 0.795609 -3 0 -3 
C -0.795609 -3 -1.55874 -2.683901 -2.12132 -2.12132 
C -2.683901 -1.55874 -3 -0.795609 -3 0 
C -3 0.795609 -2.683901 1.55874 -2.12132 2.12132 
C -1.55874 2.683901 -0.795609 3 0 3 
z
" style="stroke: #ffffff; stroke-width: 0.75"/>
    </defs>
    <g clip-path="url(#pe5cb9ac042)">
     <use xlink:href="#m524cef141e" x="138.436364" y="436.805899" style="fill: #cc79a7; stroke: #ffffff; stroke-width: 0.75"/>
     <use xlink:href="#m524cef141e" x="148.098701" y="468.322978" style="fill: #cc79a7; stroke: #ffffff; stroke-width: 0.75"/>
     <use xlink:href="#m524cef141e" x="167.423377" y="484.828455" style="fill: #cc79a7; stroke: #ffffff; stroke-width: 0.75"/>
     <use xlink:href="#m524cef141e" x="206.072727" y="472.69529" style="fill: #cc79a7; stroke: #ffffff; stroke-width: 0.75"/>
     <use xlink:href="#m524cef141e" x="283.371429" y="380.621695" style="fill: #cc79a7; stroke: #ffffff; stroke-width: 0.75"/>
     <use xlink:href="#m524cef141e" x="437.968831" y="219.538449" style="fill: #cc79a7; stroke: #ffffff; stroke-width: 0.75"/>
     <use xlink:href="#m524cef141e" x="747.163636" y="339.84989" style="fill: #cc79a7; stroke: #ffffff; stroke-width: 0.75"/>
    </g>
   </g>
   <g id="line2d_20">
    <path d="M 138.436364 436.405104 
L 148.098701 468.359414 
L 167.423377 485.156378 
L 206.072727 461.035793 
L 283.371429 331.651806 
L 437.968831 89.28 
L 747.163636 137.994838 
" clip-path="url(#pe5cb9ac042)" style="fill: none; stroke: #56b4e9; stroke-width: 2; stroke-linecap: round"/>
    <defs>
     <path id="m9ce641be2a" d="M 0 3 
C 0.795609 3 1.55874 2.683901 2.12132 2.12132 
C 2.683901 1.55874 3 0.795609 3 0 
C 3 -0.795609 2.683901 -1.55874 2.12132 -2.12132 
C 1.55874 -2.683901 0.795609 -3 0 -3 
C -0.795609 -3 -1.55874 -2.683901 -2.12132 -2.12132 
C -2.683901 -1.55874 -3 -0.795609 -3 0 
C -3 0.795609 -2.683901 1.55874 -2.12132 2.12132 
C -1.55874 2.683901 -0.795609 3 0 3 
z
" style="stroke: #ffffff; stroke-width: 0.75"/>
    </defs>
    <g clip-path="url(#pe5cb9ac042)">
     <use xlink:href="#m9ce641be2a" x="138.436364" y="436.405104" style="fill: #56b4e9; stroke: #ffffff; stroke-width: 0.75"/>
     <use xlink:href="#m9ce641be2a" x="148.098701" y="468.359414" style="fill: #56b4e9; stroke: #ffffff; stroke-width: 0.75"/>
     <use xlink:href="#m9ce641be2a" x="167.423377" y="485.156378" style="fill: #56b4e9; stroke: #ffffff; stroke-width: 0.75"/>
     <use xlink:href="#m9ce641be2a" x="206.072727" y="461.035793" style="fill: #56b4e9; stroke: #ffffff; stroke-width: 0.75"/>
     <use xlink:href="#m9ce641be2a" x="283.371429" y="331.651806" style="fill: #56b4e9; stroke: #ffffff; stroke-width: 0.75"/>
     <use xlink:href="#m9ce641be2a" x="437.968831" y="89.28" style="fill: #56b4e9; stroke: #ffffff; stroke-width: 0.75"/>
     <use xlink:href="#m9ce641be2a" x="747.163636" y="137.994838" style="fill: #56b4e9; stroke: #ffffff; stroke-width: 0.75"/>
    </g>
   </g>
   <g id="line2d_21">
    <path d="M 138.436364 436.915207 
L 148.098701 469.051697 
L 167.423377 483.881121 
L 206.072727 472.768162 
L 283.371429 386.888675 
L 437.968831 220.412912 
L 747.163636 321.340437 
" clip-path="url(#pe5cb9ac042)" style="fill: none; stroke: #009e73; stroke-width: 2; stroke-linecap: round"/>
    <defs>
     <path id="m19c2dc437c" d="M 0 3 
C 0.795609 3 1.55874 2.683901 2.12132 2.12132 
C 2.683901 1.55874 3 0.795609 3 0 
C 3 -0.795609 2.683901 -1.55874 2.12132 -2.12132 
C 1.55874 -2.683901 0.795609 -3 0 -3 
C -0.795609 -3 -1.55874 -2.683901 -2.12132 -2.12132 
C -2.683901 -1.55874 -3 -0.795609 -3 0 
C -3 0.795609 -2.683901 1.55874 -2.12132 2.12132 
C -1.55874 2.683901 -0.795609 3 0 3 
z
" style="stroke: #ffffff; stroke-width: 0.75"/>
    </defs>
    <g clip-path="url(#pe5cb9ac042)">
     <use xlink:href="#m19c2dc437c" x="138.436364" y="436.915207" style="fill: #009e73; stroke: #ffffff; stroke-width: 0.75"/>
     <use xlink:href="#m19c2dc437c" x="148.098701" y="469.051697" style="fill: #009e73; stroke: #ffffff; stroke-width: 0.75"/>
     <use xlink:href="#m19c2dc437c" x="167.423377" y="483.881121" style="fill: #009e73; stroke: #ffffff; stroke-width: 0.75"/>
     <use xlink:href="#m19c2dc437c" x="206.072727" y="472.768162" style="fill: #009e73; stroke: #ffffff; stroke-width: 0.75"/>
     <use xlink:href="#m19c2dc437c" x="283.371429" y="386.888675" style="fill: #009e73; stroke: #ffffff; stroke-width: 0.75"/>
     <use xlink:href="#m19c2dc437c" x="437.968831" y="220.412912" style="fill: #009e73; stroke: #ffffff; stroke-width: 0.75"/>
     <use xlink:href="#m19c2dc437c" x="747.163636" y="321.340437" style="fill: #009e73; stroke: #ffffff; stroke-width: 0.75"/>
    </g>
   </g>
   <g id="line2d_22"/>
   <g id="line2d_23"/>
   <g id="line2d_24"/>
   <g id="line2d_25"/>
   <g id="line2d_26"/>
   <g id="line2d_27"/>
   <g id="line2d_28"/>
   <g id="line2d_29"/>
   <g id="patch_3">
    <path d="M 108 512.64 
L 108 69.12 
" style="fill: none; stroke: #bcbcbc; stroke-width: 1.25; stroke-linejoin: miter; stroke-linecap: square"/>
   </g>
   <g id="patch_4">
    <path d="M 777.6 512.64 
L 777.6 69.12 
" style="fill: none; stroke: #bcbcbc; stroke-width: 1.25; stroke-linejoin: miter; stroke-linecap: square"/>
   </g>
   <g id="patch_5">
    <path d="M 108 512.64 
L 777.6 512.64 
" style="fill: none; stroke: #bcbcbc; stroke-width: 1.25; stroke-linejoin: miter; stroke-linecap: square"/>
   </g>
   <g id="patch_6">
    <path d="M 108 69.12 
L 777.6 69.12 
" style="fill: none; stroke: #bcbcbc; stroke-width: 1.25; stroke-linejoin: miter; stroke-linecap: square"/>
   </g>
   <g id="text_16">
    <!-- K-means Performance by Lock Type -->
    <g style="fill: #262626" transform="translate(310.53375 63.12) scale(0.1728 -0.1728)">
     <defs>
      <path id="Cambria-4b" d="M 1325 2338 
L 1419 2338 
Q 1538 2338 1636 2375 
Q 1734 2413 1856 2516 
Q 1978 2619 2228 2900 
Q 2528 3234 2638 3384 
Q 2775 3563 2822 3684 
Q 2859 3775 2859 3859 
Q 2859 3984 2787 4042 
Q 2716 4100 2591 4113 
L 2591 4266 
L 3953 4266 
L 3953 4113 
Q 3853 4091 3756 4036 
Q 3659 3981 3557 3886 
Q 3456 3791 3259 3572 
L 2209 2391 
L 3347 738 
Q 3528 475 3631 370 
Q 3734 266 3828 217 
Q 3922 169 4028 153 
L 4028 0 
L 2650 0 
L 2650 153 
Q 2766 163 2819 197 
Q 2872 231 2872 300 
Q 2872 356 2836 436 
Q 2800 516 2722 628 
L 1994 1713 
Q 1866 1906 1806 1968 
Q 1747 2031 1678 2061 
Q 1609 2091 1494 2091 
L 1328 2091 
L 1328 781 
Q 1328 572 1342 475 
Q 1356 378 1389 322 
Q 1422 266 1486 228 
Q 1550 191 1694 153 
L 1694 0 
L 378 0 
L 378 153 
Q 572 203 637 264 
Q 703 325 723 437 
Q 744 550 744 781 
L 744 3484 
Q 744 3700 728 3798 
Q 713 3897 677 3951 
Q 641 4006 581 4039 
Q 522 4072 378 4113 
L 378 4266 
L 1694 4266 
L 1694 4113 
Q 1556 4078 1495 4043 
Q 1434 4009 1398 3957 
Q 1363 3906 1345 3803 
Q 1328 3700 1328 3484 
L 1325 2338 
z
" transform="scale(0.015625)"/>
      <path id="Cambria-2d" d="M 1788 1403 
L 338 1403 
L 338 1888 
L 1788 1888 
L 1788 1403 
z
" transform="scale(0.015625)"/>
      <path id="Cambria-6e" d="M 3347 0 
L 2116 0 
L 2116 153 
Q 2238 191 2291 219 
Q 2344 247 2380 297 
Q 2416 347 2436 451 
Q 2456 556 2456 769 
L 2456 1588 
Q 2456 1806 2443 1984 
Q 2431 2163 2401 2277 
Q 2372 2391 2330 2455 
Q 2288 2519 2230 2564 
Q 2172 2609 2097 2636 
Q 2022 2663 1900 2663 
Q 1778 2663 1668 2614 
Q 1559 2566 1428 2447 
Q 1297 2328 1237 2212 
Q 1178 2097 1178 1947 
L 1178 781 
Q 1178 513 1203 408 
Q 1228 303 1298 248 
Q 1369 194 1528 153 
L 1528 0 
L 303 0 
L 303 153 
Q 425 191 476 219 
Q 528 247 564 297 
Q 600 347 620 450 
Q 641 553 641 772 
L 641 2134 
Q 641 2334 634 2456 
Q 628 2578 590 2651 
Q 553 2725 476 2761 
Q 400 2797 259 2822 
L 259 2988 
L 991 3016 
L 1181 3016 
L 1147 2506 
L 1191 2494 
Q 1422 2728 1564 2828 
Q 1706 2928 1851 2983 
Q 1997 3038 2159 3038 
Q 2328 3038 2461 2998 
Q 2594 2959 2695 2878 
Q 2797 2797 2862 2676 
Q 2928 2556 2961 2387 
Q 2994 2219 2994 1959 
L 2994 781 
Q 2994 566 3006 469 
Q 3019 372 3050 319 
Q 3081 266 3140 230 
Q 3200 194 3347 153 
L 3347 0 
z
" transform="scale(0.015625)"/>
      <path id="Cambria-50" d="M 1328 791 
Q 1328 606 1348 497 
Q 1369 388 1411 323 
Q 1453 259 1525 223 
Q 1597 188 1750 153 
L 1750 0 
L 378 0 
L 378 153 
Q 572 203 637 264 
Q 703 325 723 437 
Q 744 550 744 781 
L 744 3484 
Q 744 3700 728 3798 
Q 713 3897 677 3951 
Q 641 4006 581 4039 
Q 522 4072 378 4113 
L 378 4266 
L 1928 4266 
Q 2659 4266 3017 3986 
Q 3375 3706 3375 3134 
Q 3375 2809 3262 2550 
Q 3150 2291 2944 2125 
Q 2738 1959 2456 1887 
Q 2175 1816 1866 1816 
Q 1519 1816 1328 1828 
L 1328 791 
z
M 1328 2088 
L 1691 2088 
Q 2044 2088 2273 2180 
Q 2503 2272 2625 2486 
Q 2747 2700 2747 3053 
Q 2747 3322 2675 3501 
Q 2603 3681 2476 3790 
Q 2350 3900 2175 3945 
Q 2000 3991 1794 3991 
Q 1484 3991 1328 3978 
L 1328 2088 
z
" transform="scale(0.015625)"/>
      <path id="Cambria-63" d="M 2631 2916 
L 2631 2263 
L 2234 2263 
Q 2181 2466 2103 2583 
Q 2025 2700 1922 2747 
Q 1819 2794 1666 2794 
Q 1447 2794 1278 2653 
Q 1109 2513 1011 2225 
Q 913 1938 913 1522 
Q 913 1256 950 1036 
Q 988 816 1078 659 
Q 1169 503 1319 415 
Q 1469 328 1691 328 
Q 1906 328 2092 412 
Q 2278 497 2478 709 
L 2656 503 
Q 2497 328 2375 233 
Q 2253 138 2114 73 
Q 1975 9 1839 -20 
Q 1703 -50 1544 -50 
Q 953 -50 640 342 
Q 328 734 328 1475 
Q 328 1938 503 2295 
Q 678 2653 993 2847 
Q 1309 3041 1722 3041 
Q 1978 3041 2195 3011 
Q 2413 2981 2631 2916 
z
" transform="scale(0.015625)"/>
      <path id="Cambria-79" d="M 1625 -256 
Q 1453 -644 1290 -884 
Q 1128 -1125 933 -1247 
Q 738 -1369 469 -1369 
Q 297 -1369 81 -1328 
L 81 -709 
L 359 -709 
Q 397 -838 453 -888 
Q 509 -938 616 -938 
Q 709 -938 782 -902 
Q 856 -866 936 -778 
Q 1016 -691 1123 -509 
Q 1231 -328 1366 -50 
L 491 2303 
Q 406 2531 354 2622 
Q 303 2713 243 2759 
Q 184 2806 63 2834 
L 63 2988 
L 1334 2988 
L 1334 2834 
Q 1188 2800 1128 2767 
Q 1069 2734 1041 2682 
Q 1013 2631 1013 2550 
Q 1013 2466 1033 2375 
Q 1053 2284 1097 2163 
L 1653 597 
L 2278 2097 
Q 2331 2222 2361 2326 
Q 2391 2431 2391 2522 
Q 2391 2656 2317 2725 
Q 2244 2794 2063 2834 
L 2063 2988 
L 3231 2988 
L 3231 2834 
Q 3109 2809 3043 2757 
Q 2978 2706 2912 2595 
Q 2847 2484 2756 2284 
L 1625 -256 
z
" transform="scale(0.015625)"/>
      <path id="Cambria-6b" d="M 1138 1741 
L 1238 1741 
Q 1341 1741 1406 1763 
Q 1484 1791 1578 1858 
Q 1672 1925 1844 2084 
Q 1988 2219 2061 2312 
Q 2134 2406 2163 2484 
Q 2188 2550 2188 2616 
Q 2188 2709 2130 2762 
Q 2072 2816 1941 2834 
L 1941 2988 
L 3288 2988 
L 3288 2834 
Q 3144 2806 2981 2706 
Q 2819 2606 2647 2444 
L 1928 1763 
L 2828 588 
Q 2984 381 3111 282 
Q 3238 184 3388 153 
L 3388 0 
L 2188 0 
L 2188 153 
Q 2269 163 2308 189 
Q 2347 216 2347 278 
Q 2347 325 2330 370 
Q 2313 416 2259 494 
Q 2206 572 2066 766 
L 1694 1266 
Q 1588 1406 1542 1450 
Q 1497 1494 1447 1512 
Q 1397 1531 1313 1531 
L 1138 1531 
L 1138 781 
Q 1138 513 1163 408 
Q 1188 303 1258 248 
Q 1328 194 1488 153 
L 1488 0 
L 247 0 
L 247 153 
Q 403 194 464 237 
Q 525 281 551 342 
Q 578 403 589 508 
Q 600 613 600 781 
L 600 3397 
Q 600 3697 595 3815 
Q 591 3934 570 4017 
Q 550 4100 514 4147 
Q 478 4194 417 4222 
Q 356 4250 197 4278 
L 197 4441 
L 950 4472 
L 1138 4472 
L 1138 1741 
z
" transform="scale(0.015625)"/>
     </defs>
     <use xlink:href="#Cambria-4b"/>
     <use xlink:href="#Cambria-2d" transform="translate(59.564453 0)"/>
     <use xlink:href="#Cambria-6d" transform="translate(92.767578 0)"/>
     <use xlink:href="#Cambria-65" transform="translate(175.970703 0)"/>
     <use xlink:href="#Cambria-61" transform="translate(224.75 0)"/>
     <use xlink:href="#Cambria-6e" transform="translate(273.578125 0)"/>
     <use xlink:href="#Cambria-73" transform="translate(329.388672 0)"/>
     <use xlink:href="#Cambria-20" transform="translate(372.357422 0)"/>
     <use xlink:href="#Cambria-50" transform="translate(394.378906 0)"/>
     <use xlink:href="#Cambria-65" transform="translate(449.291016 0)"/>
     <use xlink:href="#Cambria-72" transform="translate(498.070312 0)"/>
     <use xlink:href="#Cambria-66" transform="translate(539.427734 0)"/>
     <use xlink:href="#Cambria-6f" transform="translate(569.701172 0)"/>
     <use xlink:href="#Cambria-72" transform="translate(622.777344 0)"/>
     <use xlink:href="#Cambria-6d" transform="translate(664.134766 0)"/>
     <use xlink:href="#Cambria-61" transform="translate(747.337891 0)"/>
     <use xlink:href="#Cambria-6e" transform="translate(796.166016 0)"/>
     <use xlink:href="#Cambria-63" transform="translate(851.976562 0)"/>
     <use xlink:href="#Cambria-65" transform="translate(896.068359 0)"/>
     <use xlink:href="#Cambria-20" transform="translate(944.847656 0)"/>
     <use xlink:href="#Cambria-62" transform="translate(966.869141 0)"/>
     <use xlink:href="#Cambria-79" transform="translate(1021.605469 0)"/>
     <use xlink:href="#Cambria-20" transform="translate(1071.996094 0)"/>
     <use xlink:href="#Cambria-4c" transform="translate(1094.017578 0)"/>
     <use xlink:href="#Cambria-6f" transform="translate(1147.679688 0)"/>
     <use xlink:href="#Cambria-63" transform="translate(1200.755859 0)"/>
     <use xlink:href="#Cambria-6b" transform="translate(1244.847656 0)"/>
     <use xlink:href="#Cambria-20" transform="translate(1297.289062 0)"/>
     <use xlink:href="#Cambria-54" transform="translate(1319.310547 0)"/>
     <use xlink:href="#Cambria-79" transform="translate(1376.087891 0)"/>
     <use xlink:href="#Cambria-70" transform="translate(1426.478516 0)"/>
     <use xlink:href="#Cambria-65" transform="translate(1482.09375 0)"/>
    </g>
   </g>
   <g id="legend_1">
    <g id="patch_7">
     <path d="M 115.7 218.537812 
L 245.427813 218.537812 
Q 247.627813 218.537812 247.627813 216.337812 
L 247.627813 76.82 
Q 247.627813 74.62 245.427813 74.62 
L 115.7 74.62 
Q 113.5 74.62 113.5 76.82 
L 113.5 216.337812 
Q 113.5 218.537812 115.7 218.537812 
z
" style="fill: #eeeeee; opacity: 0.8; stroke: #cccccc; stroke-width: 0.5; stroke-linejoin: miter"/>
    </g>
    <g id="text_17">
     <!-- Lock Type -->
     <g style="fill: #262626" transform="translate(154.353281 87.405) scale(0.12 -0.12)">
      <use xlink:href="#Cambria-4c"/>
      <use xlink:href="#Cambria-6f" transform="translate(53.662109 0)"/>
      <use xlink:href="#Cambria-63" transform="translate(106.738281 0)"/>
      <use xlink:href="#Cambria-6b" transform="translate(150.830078 0)"/>
      <use xlink:href="#Cambria-20" transform="translate(203.271484 0)"/>
      <use xlink:href="#Cambria-54" transform="translate(225.292969 0)"/>
      <use xlink:href="#Cambria-79" transform="translate(282.070312 0)"/>
      <use xlink:href="#Cambria-70" transform="translate(332.460938 0)"/>
      <use xlink:href="#Cambria-65" transform="translate(388.076172 0)"/>
     </g>
    </g>
    <g id="line2d_30">
     <path d="M 117.9 99.321875 
L 128.9 99.321875 
L 139.9 99.321875 
" style="fill: none; stroke: #348abd; stroke-width: 2; stroke-linecap: round"/>
     <g>
      <use xlink:href="#m4ae45108b0" x="128.9" y="99.321875" style="fill: #348abd; stroke: #ffffff; stroke-width: 0.75"/>
     </g>
    </g>
    <g id="text_18">
     <!-- array_lock -->
     <g style="fill: #262626" transform="translate(148.7 103.171875) scale(0.11 -0.11)">
      <defs>
       <path id="Cambria-5f" d="M 0 -753 
L 0 -391 
L 2372 -391 
L 2372 -753 
L 0 -753 
z
" transform="scale(0.015625)"/>
       <path id="Cambria-6c" d="M 1138 781 
Q 1138 513 1163 408 
Q 1188 303 1258 248 
Q 1328 194 1488 153 
L 1488 0 
L 247 0 
L 247 153 
Q 403 194 464 237 
Q 525 281 551 342 
Q 578 403 589 508 
Q 600 613 600 781 
L 600 3397 
Q 600 3697 595 3815 
Q 591 3934 570 4017 
Q 550 4100 514 4147 
Q 478 4194 417 4222 
Q 356 4250 197 4278 
L 197 4441 
L 950 4472 
L 1138 4472 
L 1138 781 
z
" transform="scale(0.015625)"/>
      </defs>
      <use xlink:href="#Cambria-61"/>
      <use xlink:href="#Cambria-72" transform="translate(48.828125 0)"/>
      <use xlink:href="#Cambria-72" transform="translate(90.185547 0)"/>
      <use xlink:href="#Cambria-61" transform="translate(131.542969 0)"/>
      <use xlink:href="#Cambria-79" transform="translate(180.371094 0)"/>
      <use xlink:href="#Cambria-5f" transform="translate(230.761719 0)"/>
      <use xlink:href="#Cambria-6c" transform="translate(267.822266 0)"/>
      <use xlink:href="#Cambria-6f" transform="translate(294.970703 0)"/>
      <use xlink:href="#Cambria-63" transform="translate(348.046875 0)"/>
      <use xlink:href="#Cambria-6b" transform="translate(392.138672 0)"/>
     </g>
    </g>
    <g id="line2d_31">
     <path d="M 117.9 114.874844 
L 128.9 114.874844 
L 139.9 114.874844 
" style="fill: none; stroke: #a60628; stroke-width: 2; stroke-linecap: round"/>
     <g>
      <use xlink:href="#m6d5e199666" x="128.9" y="114.874844" style="fill: #a60628; stroke: #ffffff; stroke-width: 0.75"/>
     </g>
    </g>
    <g id="text_19">
     <!-- clh_lock -->
     <g style="fill: #262626" transform="translate(148.7 118.724844) scale(0.11 -0.11)">
      <use xlink:href="#Cambria-63"/>
      <use xlink:href="#Cambria-6c" transform="translate(44.091797 0)"/>
      <use xlink:href="#Cambria-68" transform="translate(71.240234 0)"/>
      <use xlink:href="#Cambria-5f" transform="translate(126.416016 0)"/>
      <use xlink:href="#Cambria-6c" transform="translate(163.476562 0)"/>
      <use xlink:href="#Cambria-6f" transform="translate(190.625 0)"/>
      <use xlink:href="#Cambria-63" transform="translate(243.701172 0)"/>
      <use xlink:href="#Cambria-6b" transform="translate(287.792969 0)"/>
     </g>
    </g>
    <g id="line2d_32">
     <path d="M 117.9 130.384844 
L 128.9 130.384844 
L 139.9 130.384844 
" style="fill: none; stroke: #7a68a6; stroke-width: 2; stroke-linecap: round"/>
     <g>
      <use xlink:href="#m97c0eaab34" x="128.9" y="130.384844" style="fill: #7a68a6; stroke: #ffffff; stroke-width: 0.75"/>
     </g>
    </g>
    <g id="text_20">
     <!-- critical -->
     <g style="fill: #262626" transform="translate(148.7 134.234844) scale(0.11 -0.11)">
      <defs>
       <path id="Cambria-74" d="M 116 2831 
Q 272 2856 369 2918 
Q 466 2981 520 3079 
Q 575 3178 606 3326 
Q 638 3475 672 3759 
L 1116 3759 
L 1116 2988 
L 2125 2988 
L 2125 2672 
L 1116 2672 
L 1116 1281 
Q 1116 978 1141 798 
Q 1166 619 1234 517 
Q 1303 416 1390 372 
Q 1478 328 1616 328 
Q 1741 328 1850 379 
Q 1959 431 2066 528 
L 2206 359 
Q 1984 144 1786 47 
Q 1588 -50 1375 -50 
Q 972 -50 775 189 
Q 578 428 578 938 
L 578 2672 
L 116 2672 
L 116 2831 
z
" transform="scale(0.015625)"/>
      </defs>
      <use xlink:href="#Cambria-63"/>
      <use xlink:href="#Cambria-72" transform="translate(44.091797 0)"/>
      <use xlink:href="#Cambria-69" transform="translate(85.449219 0)"/>
      <use xlink:href="#Cambria-74" transform="translate(113.232422 0)"/>
      <use xlink:href="#Cambria-69" transform="translate(147.070312 0)"/>
      <use xlink:href="#Cambria-63" transform="translate(174.853516 0)"/>
      <use xlink:href="#Cambria-61" transform="translate(218.945312 0)"/>
      <use xlink:href="#Cambria-6c" transform="translate(267.773438 0)"/>
     </g>
    </g>
    <g id="line2d_33">
     <path d="M 117.9 145.894844 
L 128.9 145.894844 
L 139.9 145.894844 
" style="fill: none; stroke: #467821; stroke-width: 2; stroke-linecap: round"/>
     <g>
      <use xlink:href="#ma38fa2afde" x="128.9" y="145.894844" style="fill: #467821; stroke: #ffffff; stroke-width: 0.75"/>
     </g>
    </g>
    <g id="text_21">
     <!-- no_sync_lock -->
     <g style="fill: #262626" transform="translate(148.7 149.744844) scale(0.11 -0.11)">
      <use xlink:href="#Cambria-6e"/>
      <use xlink:href="#Cambria-6f" transform="translate(55.810547 0)"/>
      <use xlink:href="#Cambria-5f" transform="translate(108.886719 0)"/>
      <use xlink:href="#Cambria-73" transform="translate(145.947266 0)"/>
      <use xlink:href="#Cambria-79" transform="translate(188.916016 0)"/>
      <use xlink:href="#Cambria-6e" transform="translate(239.306641 0)"/>
      <use xlink:href="#Cambria-63" transform="translate(295.117188 0)"/>
      <use xlink:href="#Cambria-5f" transform="translate(339.208984 0)"/>
      <use xlink:href="#Cambria-6c" transform="translate(376.269531 0)"/>
      <use xlink:href="#Cambria-6f" transform="translate(403.417969 0)"/>
      <use xlink:href="#Cambria-63" transform="translate(456.494141 0)"/>
      <use xlink:href="#Cambria-6b" transform="translate(500.585938 0)"/>
     </g>
    </g>
    <g id="line2d_34">
     <path d="M 117.9 161.447812 
L 128.9 161.447812 
L 139.9 161.447812 
" style="fill: none; stroke: #d55e00; stroke-width: 2; stroke-linecap: round"/>
     <g>
      <use xlink:href="#ma61aa7d226" x="128.9" y="161.447812" style="fill: #d55e00; stroke: #ffffff; stroke-width: 0.75"/>
     </g>
    </g>
    <g id="text_22">
     <!-- pthread_mutex_lock -->
     <g style="fill: #262626" transform="translate(148.7 165.297812) scale(0.11 -0.11)">
      <defs>
       <path id="Cambria-78" d="M 1625 1803 
L 2031 2319 
Q 2097 2403 2137 2483 
Q 2178 2563 2178 2647 
Q 2178 2719 2125 2766 
Q 2072 2813 1959 2834 
L 1959 2988 
L 2981 2988 
L 2981 2834 
Q 2863 2800 2739 2700 
Q 2616 2600 2438 2378 
L 1791 1584 
L 2503 625 
Q 2656 419 2778 309 
Q 2900 200 3022 153 
L 3022 0 
L 1766 0 
L 1766 153 
Q 2025 184 2025 347 
Q 2025 413 2003 472 
Q 1981 531 1922 609 
L 1469 1241 
L 988 616 
Q 934 547 904 489 
Q 875 431 875 359 
Q 875 275 933 220 
Q 991 166 1116 153 
L 1116 0 
L 72 0 
L 72 153 
Q 175 191 258 247 
Q 341 303 427 392 
Q 513 481 653 653 
L 1303 1459 
L 638 2372 
Q 500 2559 419 2643 
Q 338 2728 269 2772 
Q 200 2816 131 2834 
L 131 2988 
L 1356 2988 
L 1356 2834 
Q 1109 2797 1109 2641 
Q 1109 2569 1142 2497 
Q 1175 2425 1244 2338 
L 1625 1803 
z
" transform="scale(0.015625)"/>
      </defs>
      <use xlink:href="#Cambria-70"/>
      <use xlink:href="#Cambria-74" transform="translate(55.615234 0)"/>
      <use xlink:href="#Cambria-68" transform="translate(89.453125 0)"/>
      <use xlink:href="#Cambria-72" transform="translate(144.628906 0)"/>
      <use xlink:href="#Cambria-65" transform="translate(185.986328 0)"/>
      <use xlink:href="#Cambria-61" transform="translate(234.765625 0)"/>
      <use xlink:href="#Cambria-64" transform="translate(283.59375 0)"/>
      <use xlink:href="#Cambria-5f" transform="translate(339.0625 0)"/>
      <use xlink:href="#Cambria-6d" transform="translate(376.123047 0)"/>
      <use xlink:href="#Cambria-75" transform="translate(459.326172 0)"/>
      <use xlink:href="#Cambria-74" transform="translate(514.550781 0)"/>
      <use xlink:href="#Cambria-65" transform="translate(548.388672 0)"/>
      <use xlink:href="#Cambria-78" transform="translate(597.167969 0)"/>
      <use xlink:href="#Cambria-5f" transform="translate(645.507812 0)"/>
      <use xlink:href="#Cambria-6c" transform="translate(682.568359 0)"/>
      <use xlink:href="#Cambria-6f" transform="translate(709.716797 0)"/>
      <use xlink:href="#Cambria-63" transform="translate(762.792969 0)"/>
      <use xlink:href="#Cambria-6b" transform="translate(806.884766 0)"/>
     </g>
    </g>
    <g id="line2d_35">
     <path d="M 117.9 176.957813 
L 128.9 176.957813 
L 139.9 176.957813 
" style="fill: none; stroke: #cc79a7; stroke-width: 2; stroke-linecap: round"/>
     <g>
      <use xlink:href="#m524cef141e" x="128.9" y="176.957813" style="fill: #cc79a7; stroke: #ffffff; stroke-width: 0.75"/>
     </g>
    </g>
    <g id="text_23">
     <!-- pthread_spin_lock -->
     <g style="fill: #262626" transform="translate(148.7 180.807813) scale(0.11 -0.11)">
      <use xlink:href="#Cambria-70"/>
      <use xlink:href="#Cambria-74" transform="translate(55.615234 0)"/>
      <use xlink:href="#Cambria-68" transform="translate(89.453125 0)"/>
      <use xlink:href="#Cambria-72" transform="translate(144.628906 0)"/>
      <use xlink:href="#Cambria-65" transform="translate(185.986328 0)"/>
      <use xlink:href="#Cambria-61" transform="translate(234.765625 0)"/>
      <use xlink:href="#Cambria-64" transform="translate(283.59375 0)"/>
      <use xlink:href="#Cambria-5f" transform="translate(339.0625 0)"/>
      <use xlink:href="#Cambria-73" transform="translate(376.123047 0)"/>
      <use xlink:href="#Cambria-70" transform="translate(419.091797 0)"/>
      <use xlink:href="#Cambria-69" transform="translate(474.707031 0)"/>
      <use xlink:href="#Cambria-6e" transform="translate(502.490234 0)"/>
      <use xlink:href="#Cambria-5f" transform="translate(558.300781 0)"/>
      <use xlink:href="#Cambria-6c" transform="translate(595.361328 0)"/>
      <use xlink:href="#Cambria-6f" transform="translate(622.509766 0)"/>
      <use xlink:href="#Cambria-63" transform="translate(675.585938 0)"/>
      <use xlink:href="#Cambria-6b" transform="translate(719.677734 0)"/>
     </g>
    </g>
    <g id="line2d_36">
     <path d="M 117.9 192.467813 
L 128.9 192.467813 
L 139.9 192.467813 
" style="fill: none; stroke: #56b4e9; stroke-width: 2; stroke-linecap: round"/>
     <g>
      <use xlink:href="#m9ce641be2a" x="128.9" y="192.467813" style="fill: #56b4e9; stroke: #ffffff; stroke-width: 0.75"/>
     </g>
    </g>
    <g id="text_24">
     <!-- tas_lock -->
     <g style="fill: #262626" transform="translate(148.7 196.317813) scale(0.11 -0.11)">
      <use xlink:href="#Cambria-74"/>
      <use xlink:href="#Cambria-61" transform="translate(33.837891 0)"/>
      <use xlink:href="#Cambria-73" transform="translate(82.666016 0)"/>
      <use xlink:href="#Cambria-5f" transform="translate(125.634766 0)"/>
      <use xlink:href="#Cambria-6c" transform="translate(162.695312 0)"/>
      <use xlink:href="#Cambria-6f" transform="translate(189.84375 0)"/>
      <use xlink:href="#Cambria-63" transform="translate(242.919922 0)"/>
      <use xlink:href="#Cambria-6b" transform="translate(287.011719 0)"/>
     </g>
    </g>
    <g id="line2d_37">
     <path d="M 117.9 207.977812 
L 128.9 207.977812 
L 139.9 207.977812 
" style="fill: none; stroke: #009e73; stroke-width: 2; stroke-linecap: round"/>
     <g>
      <use xlink:href="#m19c2dc437c" x="128.9" y="207.977812" style="fill: #009e73; stroke: #ffffff; stroke-width: 0.75"/>
     </g>
    </g>
    <g id="text_25">
     <!-- ttas_lock -->
     <g style="fill: #262626" transform="translate(148.7 211.827812) scale(0.11 -0.11)">
      <use xlink:href="#Cambria-74"/>
      <use xlink:href="#Cambria-74" transform="translate(33.837891 0)"/>
      <use xlink:href="#Cambria-61" transform="translate(67.675781 0)"/>
      <use xlink:href="#Cambria-73" transform="translate(116.503906 0)"/>
      <use xlink:href="#Cambria-5f" transform="translate(159.472656 0)"/>
      <use xlink:href="#Cambria-6c" transform="translate(196.533203 0)"/>
      <use xlink:href="#Cambria-6f" transform="translate(223.681641 0)"/>
      <use xlink:href="#Cambria-63" transform="translate(276.757812 0)"/>
      <use xlink:href="#Cambria-6b" transform="translate(320.849609 0)"/>
     </g>
    </g>
   </g>
  </g>
 </g>
 <defs>
  <clipPath id="pe5cb9ac042">
   <rect x="108" y="69.12" width="669.6" height="443.52"/>
  </clipPath>
 </defs>
</svg>
