<?xml version="1.0" encoding="utf-8" standalone="no"?>
<!DOCTYPE svg PUBLIC "-//W3C//DTD SVG 1.1//EN"
  "http://www.w3.org/Graphics/SVG/1.1/DTD/svg11.dtd">
<svg xmlns:xlink="http://www.w3.org/1999/xlink" width="460.8pt" height="345.6pt" viewBox="0 0 460.8 345.6" xmlns="http://www.w3.org/2000/svg" version="1.1">
 <metadata>
  <rdf:RDF xmlns:dc="http://purl.org/dc/elements/1.1/" xmlns:cc="http://creativecommons.org/ns#" xmlns:rdf="http://www.w3.org/1999/02/22-rdf-syntax-ns#">
   <cc:Work>
    <dc:type rdf:resource="http://purl.org/dc/dcmitype/StillImage"/>
    <dc:date>2025-02-13T18:11:23.842136</dc:date>
    <dc:format>image/svg+xml</dc:format>
    <dc:creator>
     <cc:Agent>
      <dc:title>Matplotlib v3.10.0, https://matplotlib.org/</dc:title>
     </cc:Agent>
    </dc:creator>
   </cc:Work>
  </rdf:RDF>
 </metadata>
 <defs>
  <style type="text/css">*{stroke-linejoin: round; stroke-linecap: butt}</style>
 </defs>
 <g id="figure_1">
  <g id="patch_1">
   <path d="M 0 345.6 
L 460.8 345.6 
L 460.8 0 
L 0 0 
z
" style="fill: #ffffff"/>
  </g>
  <g id="axes_1">
   <g id="patch_2">
    <path d="M 57.6 307.584 
L 414.72 307.584 
L 414.72 41.472 
L 57.6 41.472 
z
" style="fill: #eeeeee"/>
   </g>
   <g id="matplotlib.axis_1">
    <g id="xtick_1">
     <g id="line2d_1">
      <path d="M 68.679481 307.584 
L 68.679481 41.472 
" clip-path="url(#p3b2d0be98d)" style="fill: none; stroke-dasharray: 1.85,0.8; stroke-dashoffset: 0; stroke: #b2b2b2; stroke-width: 0.5"/>
     </g>
     <g id="text_1">
      <!-- 0 -->
      <g style="fill: #262626" transform="translate(65.633856 318.77025) scale(0.11 -0.11)">
       <defs>
        <path id="Cambria-30" d="M 1738 -50 
Q 1063 -50 733 481 
Q 403 1013 403 2094 
Q 403 2669 504 3087 
Q 606 3506 789 3779 
Q 972 4053 1228 4184 
Q 1484 4316 1788 4316 
Q 2472 4316 2806 3787 
Q 3141 3259 3141 2191 
Q 3141 1084 2783 517 
Q 2425 -50 1738 -50 
z
M 1013 2188 
Q 1013 1169 1202 692 
Q 1391 216 1788 216 
Q 2166 216 2348 664 
Q 2531 1113 2531 2053 
Q 2531 2772 2437 3217 
Q 2344 3663 2176 3856 
Q 2009 4050 1772 4050 
Q 1556 4050 1411 3922 
Q 1266 3794 1177 3553 
Q 1088 3313 1050 2967 
Q 1013 2622 1013 2188 
z
" transform="scale(0.015625)"/>
       </defs>
       <use xlink:href="#Cambria-30"/>
      </g>
     </g>
    </g>
    <g id="xtick_2">
     <g id="line2d_2">
      <path d="M 120.211948 307.584 
L 120.211948 41.472 
" clip-path="url(#p3b2d0be98d)" style="fill: none; stroke-dasharray: 1.85,0.8; stroke-dashoffset: 0; stroke: #b2b2b2; stroke-width: 0.5"/>
     </g>
     <g id="text_2">
      <!-- 10 -->
      <g style="fill: #262626" transform="translate(114.120698 318.77025) scale(0.11 -0.11)">
       <defs>
        <path id="Cambria-31" d="M 2172 816 
Q 2172 634 2192 542 
Q 2213 450 2264 392 
Q 2316 334 2412 301 
Q 2509 269 2656 251 
Q 2803 234 3044 228 
L 3044 0 
L 734 0 
L 734 228 
Q 1081 244 1229 270 
Q 1378 297 1456 350 
Q 1534 403 1570 500 
Q 1606 597 1606 816 
L 1606 3350 
Q 1606 3475 1562 3533 
Q 1519 3591 1434 3591 
Q 1334 3591 1150 3487 
Q 966 3384 694 3203 
L 556 3444 
L 2019 4316 
L 2191 4316 
Q 2172 4016 2172 3484 
L 2172 816 
z
" transform="scale(0.015625)"/>
       </defs>
       <use xlink:href="#Cambria-31"/>
       <use xlink:href="#Cambria-30" transform="translate(55.371094 0)"/>
      </g>
     </g>
    </g>
    <g id="xtick_3">
     <g id="line2d_3">
      <path d="M 171.744416 307.584 
L 171.744416 41.472 
" clip-path="url(#p3b2d0be98d)" style="fill: none; stroke-dasharray: 1.85,0.8; stroke-dashoffset: 0; stroke: #b2b2b2; stroke-width: 0.5"/>
     </g>
     <g id="text_3">
      <!-- 20 -->
      <g style="fill: #262626" transform="translate(165.653166 318.77025) scale(0.11 -0.11)">
       <defs>
        <path id="Cambria-32" d="M 2194 500 
Q 2347 500 2440 519 
Q 2534 538 2590 581 
Q 2647 625 2680 695 
Q 2713 766 2763 913 
L 3028 913 
L 2975 0 
L 403 0 
L 403 150 
Q 538 478 766 822 
Q 994 1166 1413 1631 
Q 1775 2031 1934 2238 
Q 2109 2463 2195 2627 
Q 2281 2791 2318 2936 
Q 2356 3081 2356 3228 
Q 2356 3463 2281 3642 
Q 2206 3822 2051 3925 
Q 1897 4028 1663 4028 
Q 1078 4028 875 3378 
L 497 3378 
L 497 3978 
Q 875 4156 1204 4236 
Q 1534 4316 1797 4316 
Q 2378 4316 2675 4061 
Q 2972 3806 2972 3322 
Q 2972 3156 2939 3017 
Q 2906 2878 2836 2742 
Q 2766 2606 2647 2450 
Q 2528 2294 2384 2133 
Q 2241 1972 1888 1597 
Q 1294 969 1016 500 
L 2194 500 
z
" transform="scale(0.015625)"/>
       </defs>
       <use xlink:href="#Cambria-32"/>
       <use xlink:href="#Cambria-30" transform="translate(55.371094 0)"/>
      </g>
     </g>
    </g>
    <g id="xtick_4">
     <g id="line2d_4">
      <path d="M 223.276883 307.584 
L 223.276883 41.472 
" clip-path="url(#p3b2d0be98d)" style="fill: none; stroke-dasharray: 1.85,0.8; stroke-dashoffset: 0; stroke: #b2b2b2; stroke-width: 0.5"/>
     </g>
     <g id="text_4">
      <!-- 30 -->
      <g style="fill: #262626" transform="translate(217.185633 318.77025) scale(0.11 -0.11)">
       <defs>
        <path id="Cambria-33" d="M 497 3381 
L 497 3975 
Q 859 4147 1175 4231 
Q 1491 4316 1784 4316 
Q 2138 4316 2403 4206 
Q 2669 4097 2809 3892 
Q 2950 3688 2950 3403 
Q 2950 3138 2844 2936 
Q 2738 2734 2545 2584 
Q 2353 2434 2047 2291 
L 2047 2263 
Q 2238 2228 2414 2145 
Q 2591 2063 2728 1931 
Q 2866 1800 2948 1617 
Q 3031 1434 3031 1200 
Q 3031 838 2873 556 
Q 2716 275 2391 112 
Q 2066 -50 1600 -50 
Q 1331 -50 1020 11 
Q 709 72 450 172 
L 450 834 
L 825 834 
Q 934 509 1114 362 
Q 1294 216 1603 216 
Q 2009 216 2217 437 
Q 2425 659 2425 1094 
Q 2425 1550 2150 1790 
Q 1875 2031 1344 2031 
L 1063 2031 
L 1063 2306 
Q 1484 2331 1773 2468 
Q 2063 2606 2203 2822 
Q 2344 3038 2344 3306 
Q 2344 3653 2159 3840 
Q 1975 4028 1622 4028 
Q 1328 4028 1143 3868 
Q 959 3709 872 3381 
L 497 3381 
z
" transform="scale(0.015625)"/>
       </defs>
       <use xlink:href="#Cambria-33"/>
       <use xlink:href="#Cambria-30" transform="translate(55.371094 0)"/>
      </g>
     </g>
    </g>
    <g id="xtick_5">
     <g id="line2d_5">
      <path d="M 274.809351 307.584 
L 274.809351 41.472 
" clip-path="url(#p3b2d0be98d)" style="fill: none; stroke-dasharray: 1.85,0.8; stroke-dashoffset: 0; stroke: #b2b2b2; stroke-width: 0.5"/>
     </g>
     <g id="text_5">
      <!-- 40 -->
      <g style="fill: #262626" transform="translate(268.718101 318.77025) scale(0.11 -0.11)">
       <defs>
        <path id="Cambria-34" d="M 1613 153 
Q 1806 203 1872 264 
Q 1938 325 1958 437 
Q 1978 550 1978 781 
L 1978 1294 
L 241 1294 
L 241 1528 
L 2069 4288 
L 2516 4288 
L 2516 1597 
L 2581 1597 
Q 2763 1597 2841 1623 
Q 2919 1650 2970 1717 
Q 3022 1784 3066 1938 
L 3303 1938 
L 3266 1294 
L 2516 1294 
L 2516 781 
Q 2516 572 2530 475 
Q 2544 378 2576 322 
Q 2609 266 2673 228 
Q 2738 191 2881 153 
L 2881 0 
L 1613 0 
L 1613 153 
z
M 756 1597 
L 1978 1597 
L 1978 2375 
Q 1978 2669 1987 3033 
Q 1997 3397 2009 3581 
L 1978 3581 
L 756 1641 
L 756 1597 
z
" transform="scale(0.015625)"/>
       </defs>
       <use xlink:href="#Cambria-34"/>
       <use xlink:href="#Cambria-30" transform="translate(55.371094 0)"/>
      </g>
     </g>
    </g>
    <g id="xtick_6">
     <g id="line2d_6">
      <path d="M 326.341818 307.584 
L 326.341818 41.472 
" clip-path="url(#p3b2d0be98d)" style="fill: none; stroke-dasharray: 1.85,0.8; stroke-dashoffset: 0; stroke: #b2b2b2; stroke-width: 0.5"/>
     </g>
     <g id="text_6">
      <!-- 50 -->
      <g style="fill: #262626" transform="translate(320.250568 318.77025) scale(0.11 -0.11)">
       <defs>
        <path id="Cambria-35" d="M 469 172 
L 469 834 
L 847 834 
Q 941 516 1130 366 
Q 1319 216 1619 216 
Q 2034 216 2246 466 
Q 2459 716 2459 1213 
Q 2459 1544 2346 1761 
Q 2234 1978 2043 2075 
Q 1853 2172 1600 2172 
Q 1388 2172 1234 2145 
Q 1081 2119 906 2063 
L 656 2209 
L 656 4266 
L 2378 4266 
Q 2484 4266 2531 4283 
Q 2578 4300 2606 4336 
Q 2634 4372 2672 4472 
L 2916 4472 
L 2869 3747 
L 1072 3747 
L 1072 2375 
Q 1234 2444 1425 2478 
Q 1616 2513 1806 2513 
Q 2178 2513 2465 2361 
Q 2753 2209 2909 1929 
Q 3066 1650 3066 1281 
Q 3066 863 2891 563 
Q 2716 263 2384 106 
Q 2053 -50 1600 -50 
Q 1059 -50 469 172 
z
" transform="scale(0.015625)"/>
       </defs>
       <use xlink:href="#Cambria-35"/>
       <use xlink:href="#Cambria-30" transform="translate(55.371094 0)"/>
      </g>
     </g>
    </g>
    <g id="xtick_7">
     <g id="line2d_7">
      <path d="M 377.874286 307.584 
L 377.874286 41.472 
" clip-path="url(#p3b2d0be98d)" style="fill: none; stroke-dasharray: 1.85,0.8; stroke-dashoffset: 0; stroke: #b2b2b2; stroke-width: 0.5"/>
     </g>
     <g id="text_7">
      <!-- 60 -->
      <g style="fill: #262626" transform="translate(371.783036 318.77025) scale(0.11 -0.11)">
       <defs>
        <path id="Cambria-36" d="M 2847 4144 
L 2847 3991 
Q 2366 3991 1994 3784 
Q 1622 3578 1376 3178 
Q 1131 2778 1031 2228 
L 1063 2216 
Q 1325 2403 1579 2490 
Q 1834 2578 2131 2578 
Q 2484 2578 2732 2423 
Q 2981 2269 3106 1989 
Q 3231 1709 3231 1334 
Q 3231 928 3075 617 
Q 2919 306 2592 128 
Q 2266 -50 1788 -50 
Q 1103 -50 754 375 
Q 406 800 406 1628 
Q 406 2184 581 2668 
Q 756 3153 1078 3514 
Q 1400 3875 1825 4083 
Q 2250 4291 2719 4316 
L 2847 4144 
z
M 1916 2250 
Q 1763 2250 1620 2215 
Q 1478 2181 1353 2115 
Q 1228 2050 1109 1950 
Q 1072 1916 1053 1878 
Q 1022 1819 1012 1731 
Q 1003 1644 1003 1438 
Q 1003 841 1203 528 
Q 1403 216 1809 216 
Q 2044 216 2203 297 
Q 2363 378 2461 520 
Q 2559 663 2601 855 
Q 2644 1047 2644 1272 
Q 2644 1734 2453 1992 
Q 2263 2250 1916 2250 
z
" transform="scale(0.015625)"/>
       </defs>
       <use xlink:href="#Cambria-36"/>
       <use xlink:href="#Cambria-30" transform="translate(55.371094 0)"/>
      </g>
     </g>
    </g>
    <g id="text_8">
     <!-- # Threads / Nodes -->
     <g style="fill: #262626" transform="translate(178.76025 335.14225) scale(0.144 -0.144)">
      <defs>
       <path id="Cambria-23" d="M 2947 2606 
L 2816 1678 
L 3469 1678 
L 3469 1322 
L 2763 1322 
L 2581 0 
L 2159 0 
L 2347 1322 
L 1388 1322 
L 1206 0 
L 784 0 
L 969 1322 
L 344 1322 
L 344 1678 
L 1016 1678 
L 1150 2606 
L 500 2606 
L 500 2966 
L 1200 2966 
L 1381 4269 
L 1803 4269 
L 1616 2966 
L 2578 2966 
L 2763 4269 
L 3181 4269 
L 2994 2966 
L 3619 2966 
L 3619 2606 
L 2947 2606 
z
M 1569 2606 
L 1438 1678 
L 2397 1678 
L 2528 2606 
L 1569 2606 
z
" transform="scale(0.015625)"/>
       <path id="Cambria-20" transform="scale(0.015625)"/>
       <path id="Cambria-54" d="M 206 4266 
L 3588 4266 
L 3588 3178 
L 3281 3178 
Q 3213 3447 3145 3603 
Q 3078 3759 3003 3840 
Q 2928 3922 2842 3956 
Q 2756 3991 2584 3991 
L 2188 3991 
L 2188 791 
Q 2188 606 2208 497 
Q 2228 388 2270 323 
Q 2313 259 2384 223 
Q 2456 188 2609 153 
L 2609 0 
L 1181 0 
L 1181 153 
Q 1275 175 1347 200 
Q 1419 225 1464 261 
Q 1509 297 1539 353 
Q 1569 409 1586 506 
Q 1603 603 1603 791 
L 1603 3991 
L 1209 3991 
Q 1063 3991 967 3962 
Q 872 3934 790 3845 
Q 709 3756 642 3592 
Q 575 3428 516 3178 
L 206 3178 
L 206 4266 
z
" transform="scale(0.015625)"/>
       <path id="Cambria-68" d="M 1141 2497 
L 1153 2494 
Q 1397 2741 1539 2839 
Q 1681 2938 1820 2988 
Q 1959 3038 2119 3038 
Q 2291 3038 2425 2997 
Q 2559 2956 2661 2873 
Q 2763 2791 2827 2670 
Q 2891 2550 2922 2383 
Q 2953 2216 2953 1959 
L 2953 781 
Q 2953 509 2976 411 
Q 3000 313 3061 258 
Q 3122 203 3306 153 
L 3306 0 
L 2075 0 
L 2075 153 
Q 2197 191 2250 219 
Q 2303 247 2339 297 
Q 2375 347 2395 451 
Q 2416 556 2416 769 
L 2416 1588 
Q 2416 2003 2373 2223 
Q 2331 2444 2207 2553 
Q 2084 2663 1863 2663 
Q 1738 2663 1638 2619 
Q 1538 2575 1406 2462 
Q 1275 2350 1208 2231 
Q 1141 2113 1141 1978 
L 1141 781 
Q 1141 569 1152 478 
Q 1163 388 1194 327 
Q 1225 266 1289 227 
Q 1353 188 1488 153 
L 1488 0 
L 250 0 
L 250 153 
Q 388 191 447 225 
Q 506 259 539 312 
Q 572 366 587 466 
Q 603 566 603 781 
L 603 3397 
Q 603 3697 598 3815 
Q 594 3934 573 4017 
Q 553 4100 517 4147 
Q 481 4194 420 4222 
Q 359 4250 200 4278 
L 200 4441 
L 953 4472 
L 1141 4472 
L 1141 2497 
z
" transform="scale(0.015625)"/>
       <path id="Cambria-72" d="M 1147 2469 
L 1191 2459 
Q 1363 2669 1509 2789 
Q 1656 2909 1826 2975 
Q 1997 3041 2213 3041 
Q 2394 3041 2541 3022 
L 2541 2303 
L 2188 2303 
Q 2113 2472 2028 2548 
Q 1944 2625 1797 2625 
Q 1684 2625 1573 2559 
Q 1463 2494 1359 2369 
Q 1256 2244 1217 2134 
Q 1178 2025 1178 1875 
L 1178 781 
Q 1178 497 1212 389 
Q 1247 281 1326 231 
Q 1406 181 1566 153 
L 1566 0 
L 306 0 
L 306 153 
Q 425 191 476 219 
Q 528 247 565 297 
Q 603 347 622 450 
Q 641 553 641 772 
L 641 2134 
Q 641 2334 634 2456 
Q 628 2578 590 2651 
Q 553 2725 476 2761 
Q 400 2797 259 2822 
L 259 2984 
L 991 3016 
L 1181 3016 
L 1147 2469 
z
" transform="scale(0.015625)"/>
       <path id="Cambria-65" d="M 2800 531 
Q 2600 322 2433 203 
Q 2266 84 2066 17 
Q 1866 -50 1625 -50 
Q 981 -50 653 336 
Q 325 722 325 1475 
Q 325 1941 492 2297 
Q 659 2653 968 2847 
Q 1278 3041 1681 3041 
Q 1997 3041 2219 2941 
Q 2441 2841 2573 2667 
Q 2706 2494 2779 2230 
Q 2853 1966 2863 1541 
L 894 1541 
L 894 1484 
Q 894 1116 976 864 
Q 1059 613 1248 470 
Q 1438 328 1741 328 
Q 1997 328 2201 423 
Q 2406 519 2609 734 
L 2800 531 
z
M 2275 1800 
Q 2256 2138 2190 2352 
Q 2125 2566 1994 2680 
Q 1863 2794 1650 2794 
Q 1328 2794 1136 2536 
Q 944 2278 909 1800 
L 2275 1800 
z
" transform="scale(0.015625)"/>
       <path id="Cambria-61" d="M 2109 447 
L 2063 459 
Q 1791 181 1552 65 
Q 1313 -50 1044 -50 
Q 806 -50 625 42 
Q 444 134 347 301 
Q 250 469 250 688 
Q 250 1144 701 1392 
Q 1153 1641 2056 1681 
L 2056 1884 
Q 2056 2209 1993 2396 
Q 1931 2584 1797 2671 
Q 1663 2759 1438 2759 
Q 1194 2759 1045 2631 
Q 897 2503 822 2247 
L 413 2247 
L 413 2653 
Q 713 2809 913 2882 
Q 1113 2956 1313 2998 
Q 1513 3041 1719 3041 
Q 2028 3041 2215 2942 
Q 2403 2844 2497 2641 
Q 2591 2438 2591 2028 
L 2591 941 
Q 2591 709 2594 614 
Q 2597 519 2612 437 
Q 2628 356 2659 307 
Q 2691 259 2752 225 
Q 2813 191 2950 153 
L 2950 0 
L 2094 0 
L 2109 447 
z
M 2056 1425 
Q 1422 1419 1106 1256 
Q 791 1094 791 766 
Q 791 588 862 484 
Q 934 381 1043 342 
Q 1153 303 1303 303 
Q 1516 303 1689 406 
Q 1863 509 1959 668 
Q 2056 828 2056 984 
L 2056 1425 
z
" transform="scale(0.015625)"/>
       <path id="Cambria-64" d="M 2413 3397 
Q 2413 3697 2408 3815 
Q 2403 3934 2383 4017 
Q 2363 4100 2327 4147 
Q 2291 4194 2230 4222 
Q 2169 4250 2009 4278 
L 2009 4441 
L 2766 4472 
L 2950 4472 
L 2950 853 
Q 2950 609 2959 504 
Q 2969 400 3000 337 
Q 3031 275 3098 236 
Q 3166 197 3334 163 
L 3334 0 
L 2597 -31 
L 2409 -31 
L 2447 481 
L 2400 494 
Q 2203 284 2058 179 
Q 1913 75 1748 12 
Q 1584 -50 1397 -50 
Q 884 -50 606 339 
Q 328 728 328 1463 
Q 328 1975 509 2333 
Q 691 2691 998 2866 
Q 1306 3041 1691 3041 
Q 1897 3041 2065 3008 
Q 2234 2975 2413 2900 
L 2413 3397 
z
M 2413 1853 
Q 2413 2097 2391 2244 
Q 2369 2391 2317 2491 
Q 2266 2591 2178 2659 
Q 2091 2728 1986 2759 
Q 1881 2791 1734 2791 
Q 1334 2791 1125 2470 
Q 916 2150 916 1550 
Q 916 950 1087 637 
Q 1259 325 1609 325 
Q 1747 325 1837 348 
Q 1928 372 2015 423 
Q 2103 475 2193 565 
Q 2284 656 2326 731 
Q 2369 806 2391 903 
Q 2413 1000 2413 1153 
L 2413 1853 
z
" transform="scale(0.015625)"/>
       <path id="Cambria-73" d="M 2397 2303 
L 2097 2303 
Q 2028 2491 1934 2598 
Q 1841 2706 1722 2750 
Q 1603 2794 1431 2794 
Q 1181 2794 1032 2676 
Q 884 2559 884 2356 
Q 884 2213 943 2119 
Q 1003 2025 1128 1944 
Q 1253 1863 1569 1728 
Q 1888 1591 2061 1475 
Q 2234 1359 2332 1206 
Q 2431 1053 2431 841 
Q 2431 594 2347 425 
Q 2263 256 2109 150 
Q 1956 44 1745 -3 
Q 1534 -50 1284 -50 
Q 1022 -50 775 -11 
Q 528 28 294 91 
L 294 744 
L 600 744 
Q 684 456 850 326 
Q 1016 197 1306 197 
Q 1419 197 1526 220 
Q 1634 244 1718 298 
Q 1803 353 1853 447 
Q 1903 541 1903 681 
Q 1903 841 1840 941 
Q 1778 1041 1647 1123 
Q 1516 1206 1184 1347 
Q 900 1466 728 1578 
Q 556 1691 457 1844 
Q 359 1997 359 2206 
Q 359 2463 498 2652 
Q 638 2841 900 2941 
Q 1163 3041 1516 3041 
Q 1722 3041 1914 3020 
Q 2106 3000 2397 2941 
L 2397 2303 
z
" transform="scale(0.015625)"/>
       <path id="Cambria-2f" d="M 2941 4472 
L 684 -1344 
L 194 -1344 
L 2456 4472 
L 2941 4472 
z
" transform="scale(0.015625)"/>
       <path id="Cambria-4e" d="M 2888 1691 
Q 3000 1503 3076 1362 
Q 3153 1222 3234 1047 
L 3275 1047 
Q 3259 1238 3246 1805 
Q 3234 2372 3234 2828 
L 3234 3484 
Q 3234 3700 3221 3800 
Q 3209 3900 3176 3953 
Q 3144 4006 3086 4039 
Q 3028 4072 2884 4113 
L 2884 4266 
L 4009 4266 
L 4009 4113 
Q 3869 4075 3811 4044 
Q 3753 4013 3717 3963 
Q 3681 3913 3662 3813 
Q 3644 3713 3644 3484 
L 3644 -19 
L 3253 -19 
L 1513 2900 
Q 1350 3172 1281 3297 
Q 1213 3422 1153 3544 
L 1100 3544 
Q 1122 3303 1131 2673 
Q 1141 2044 1141 1419 
L 1141 781 
Q 1141 572 1155 475 
Q 1169 378 1201 322 
Q 1234 266 1298 228 
Q 1363 191 1506 153 
L 1506 0 
L 366 0 
L 366 153 
Q 559 203 625 264 
Q 691 325 711 437 
Q 731 550 731 781 
L 731 3484 
Q 731 3700 715 3798 
Q 700 3897 664 3951 
Q 628 4006 568 4039 
Q 509 4072 366 4113 
L 366 4266 
L 1344 4266 
L 2888 1691 
z
" transform="scale(0.015625)"/>
       <path id="Cambria-6f" d="M 1663 -50 
Q 1013 -50 670 333 
Q 328 716 328 1466 
Q 328 1981 508 2337 
Q 688 2694 1000 2867 
Q 1313 3041 1713 3041 
Q 2381 3041 2725 2652 
Q 3069 2263 3069 1534 
Q 3069 1016 2897 659 
Q 2725 303 2409 126 
Q 2094 -50 1663 -50 
z
M 919 1531 
Q 919 888 1123 542 
Q 1328 197 1709 197 
Q 1919 197 2066 298 
Q 2213 400 2305 572 
Q 2397 744 2437 970 
Q 2478 1197 2478 1444 
Q 2478 1903 2376 2206 
Q 2275 2509 2100 2651 
Q 1925 2794 1700 2794 
Q 1322 2794 1120 2466 
Q 919 2138 919 1531 
z
" transform="scale(0.015625)"/>
      </defs>
      <use xlink:href="#Cambria-23"/>
      <use xlink:href="#Cambria-20" transform="translate(61.914062 0)"/>
      <use xlink:href="#Cambria-54" transform="translate(83.935547 0)"/>
      <use xlink:href="#Cambria-68" transform="translate(143.212891 0)"/>
      <use xlink:href="#Cambria-72" transform="translate(198.388672 0)"/>
      <use xlink:href="#Cambria-65" transform="translate(239.746094 0)"/>
      <use xlink:href="#Cambria-61" transform="translate(288.525391 0)"/>
      <use xlink:href="#Cambria-64" transform="translate(337.353516 0)"/>
      <use xlink:href="#Cambria-73" transform="translate(392.822266 0)"/>
      <use xlink:href="#Cambria-20" transform="translate(435.791016 0)"/>
      <use xlink:href="#Cambria-2f" transform="translate(457.8125 0)"/>
      <use xlink:href="#Cambria-20" transform="translate(506.835938 0)"/>
      <use xlink:href="#Cambria-4e" transform="translate(528.857422 0)"/>
      <use xlink:href="#Cambria-6f" transform="translate(596.923828 0)"/>
      <use xlink:href="#Cambria-64" transform="translate(650 0)"/>
      <use xlink:href="#Cambria-65" transform="translate(705.46875 0)"/>
      <use xlink:href="#Cambria-73" transform="translate(754.248047 0)"/>
     </g>
    </g>
   </g>
   <g id="matplotlib.axis_2">
    <g id="ytick_1">
     <g id="line2d_8">
      <path d="M 57.6 299.777866 
L 414.72 299.777866 
" clip-path="url(#p3b2d0be98d)" style="fill: none; stroke-dasharray: 1.85,0.8; stroke-dashoffset: 0; stroke: #b2b2b2; stroke-width: 0.5"/>
     </g>
     <g id="text_9">
      <!-- 0 -->
      <g style="fill: #262626" transform="translate(48.00875 303.620991) scale(0.11 -0.11)">
       <use xlink:href="#Cambria-30"/>
      </g>
     </g>
    </g>
    <g id="ytick_2">
     <g id="line2d_9">
      <path d="M 57.6 256.879204 
L 414.72 256.879204 
" clip-path="url(#p3b2d0be98d)" style="fill: none; stroke-dasharray: 1.85,0.8; stroke-dashoffset: 0; stroke: #b2b2b2; stroke-width: 0.5"/>
     </g>
     <g id="text_10">
      <!-- 10 -->
      <g style="fill: #262626" transform="translate(41.9175 260.722329) scale(0.11 -0.11)">
       <use xlink:href="#Cambria-31"/>
       <use xlink:href="#Cambria-30" transform="translate(55.371094 0)"/>
      </g>
     </g>
    </g>
    <g id="ytick_3">
     <g id="line2d_10">
      <path d="M 57.6 213.980542 
L 414.72 213.980542 
" clip-path="url(#p3b2d0be98d)" style="fill: none; stroke-dasharray: 1.85,0.8; stroke-dashoffset: 0; stroke: #b2b2b2; stroke-width: 0.5"/>
     </g>
     <g id="text_11">
      <!-- 20 -->
      <g style="fill: #262626" transform="translate(41.9175 217.823667) scale(0.11 -0.11)">
       <use xlink:href="#Cambria-32"/>
       <use xlink:href="#Cambria-30" transform="translate(55.371094 0)"/>
      </g>
     </g>
    </g>
    <g id="ytick_4">
     <g id="line2d_11">
      <path d="M 57.6 171.08188 
L 414.72 171.08188 
" clip-path="url(#p3b2d0be98d)" style="fill: none; stroke-dasharray: 1.85,0.8; stroke-dashoffset: 0; stroke: #b2b2b2; stroke-width: 0.5"/>
     </g>
     <g id="text_12">
      <!-- 30 -->
      <g style="fill: #262626" transform="translate(41.9175 174.925005) scale(0.11 -0.11)">
       <use xlink:href="#Cambria-33"/>
       <use xlink:href="#Cambria-30" transform="translate(55.371094 0)"/>
      </g>
     </g>
    </g>
    <g id="ytick_5">
     <g id="line2d_12">
      <path d="M 57.6 128.183217 
L 414.72 128.183217 
" clip-path="url(#p3b2d0be98d)" style="fill: none; stroke-dasharray: 1.85,0.8; stroke-dashoffset: 0; stroke: #b2b2b2; stroke-width: 0.5"/>
     </g>
     <g id="text_13">
      <!-- 40 -->
      <g style="fill: #262626" transform="translate(41.9175 132.026342) scale(0.11 -0.11)">
       <use xlink:href="#Cambria-34"/>
       <use xlink:href="#Cambria-30" transform="translate(55.371094 0)"/>
      </g>
     </g>
    </g>
    <g id="ytick_6">
     <g id="line2d_13">
      <path d="M 57.6 85.284555 
L 414.72 85.284555 
" clip-path="url(#p3b2d0be98d)" style="fill: none; stroke-dasharray: 1.85,0.8; stroke-dashoffset: 0; stroke: #b2b2b2; stroke-width: 0.5"/>
     </g>
     <g id="text_14">
      <!-- 50 -->
      <g style="fill: #262626" transform="translate(41.9175 89.12768) scale(0.11 -0.11)">
       <use xlink:href="#Cambria-35"/>
       <use xlink:href="#Cambria-30" transform="translate(55.371094 0)"/>
      </g>
     </g>
    </g>
    <g id="ytick_7">
     <g id="line2d_14">
      <path d="M 57.6 42.385893 
L 414.72 42.385893 
" clip-path="url(#p3b2d0be98d)" style="fill: none; stroke-dasharray: 1.85,0.8; stroke-dashoffset: 0; stroke: #b2b2b2; stroke-width: 0.5"/>
     </g>
     <g id="text_15">
      <!-- 60 -->
      <g style="fill: #262626" transform="translate(41.9175 46.229018) scale(0.11 -0.11)">
       <use xlink:href="#Cambria-36"/>
       <use xlink:href="#Cambria-30" transform="translate(55.371094 0)"/>
      </g>
     </g>
    </g>
    <g id="text_16">
     <!-- Speedup -->
     <g style="fill: #262626" transform="translate(34.8935 201.101625) rotate(-90) scale(0.144 -0.144)">
      <defs>
       <path id="Cambria-53" d="M 663 972 
Q 725 697 831 537 
Q 938 378 1106 301 
Q 1275 225 1541 225 
Q 1906 225 2101 415 
Q 2297 606 2297 972 
Q 2297 1206 2215 1365 
Q 2134 1525 1950 1665 
Q 1766 1806 1388 1994 
Q 1022 2175 809 2348 
Q 597 2522 492 2725 
Q 388 2928 388 3169 
Q 388 3519 552 3776 
Q 716 4034 1033 4175 
Q 1350 4316 1759 4316 
Q 1997 4316 2223 4291 
Q 2450 4266 2791 4178 
L 2791 3334 
L 2481 3334 
Q 2409 3609 2300 3762 
Q 2191 3916 2044 3977 
Q 1897 4038 1663 4038 
Q 1459 4038 1298 3963 
Q 1138 3888 1044 3736 
Q 950 3584 950 3375 
Q 950 3153 1029 3000 
Q 1109 2847 1278 2715 
Q 1447 2584 1778 2422 
Q 2178 2222 2398 2050 
Q 2619 1878 2742 1658 
Q 2866 1438 2866 1144 
Q 2866 816 2762 589 
Q 2659 363 2476 220 
Q 2294 78 2039 14 
Q 1784 -50 1481 -50 
Q 991 -50 350 116 
L 350 972 
L 663 972 
z
" transform="scale(0.015625)"/>
       <path id="Cambria-70" d="M 1150 94 
L 1150 -566 
Q 1150 -769 1164 -869 
Q 1178 -969 1214 -1026 
Q 1250 -1084 1317 -1121 
Q 1384 -1159 1534 -1191 
L 1534 -1344 
L 259 -1344 
L 259 -1191 
Q 372 -1159 442 -1126 
Q 513 -1094 550 -1030 
Q 588 -966 600 -856 
Q 613 -747 613 -566 
L 613 2116 
Q 613 2341 606 2436 
Q 600 2531 581 2593 
Q 563 2656 527 2697 
Q 491 2738 430 2766 
Q 369 2794 228 2822 
L 228 2988 
L 963 3016 
L 1153 3016 
L 1113 2506 
L 1159 2494 
Q 1353 2691 1465 2780 
Q 1578 2869 1698 2928 
Q 1819 2988 1930 3013 
Q 2041 3038 2166 3038 
Q 2681 3038 2957 2652 
Q 3234 2266 3234 1522 
Q 3234 1006 3078 654 
Q 2922 303 2623 126 
Q 2325 -50 1913 -50 
Q 1681 -50 1493 -11 
Q 1306 28 1150 94 
z
M 1150 1125 
Q 1150 825 1187 662 
Q 1225 500 1320 398 
Q 1416 297 1545 247 
Q 1675 197 1888 197 
Q 2266 197 2456 511 
Q 2647 825 2647 1438 
Q 2647 2663 1931 2663 
Q 1756 2663 1629 2608 
Q 1503 2553 1378 2431 
Q 1253 2309 1201 2195 
Q 1150 2081 1150 1950 
L 1150 1125 
z
" transform="scale(0.015625)"/>
       <path id="Cambria-75" d="M 228 2988 
L 1119 2988 
L 1119 1397 
Q 1119 1031 1147 840 
Q 1175 650 1231 553 
Q 1288 456 1391 390 
Q 1494 325 1675 325 
Q 1794 325 1903 372 
Q 2013 419 2147 536 
Q 2281 653 2339 768 
Q 2397 884 2397 1038 
L 2397 2209 
Q 2397 2388 2387 2478 
Q 2378 2569 2356 2623 
Q 2334 2678 2304 2712 
Q 2275 2747 2220 2775 
Q 2166 2803 2044 2834 
L 2044 2988 
L 2934 2988 
L 2934 853 
Q 2934 613 2943 506 
Q 2953 400 2984 337 
Q 3016 275 3081 236 
Q 3147 197 3316 163 
L 3316 0 
L 2600 -31 
L 2409 -31 
L 2428 481 
L 2381 494 
Q 2122 213 1886 81 
Q 1650 -50 1413 -50 
Q 1128 -50 943 62 
Q 759 175 668 398 
Q 578 622 578 1028 
L 578 2209 
Q 578 2472 558 2570 
Q 538 2669 480 2726 
Q 422 2784 228 2834 
L 228 2988 
z
" transform="scale(0.015625)"/>
      </defs>
      <use xlink:href="#Cambria-53"/>
      <use xlink:href="#Cambria-70" transform="translate(49.609375 0)"/>
      <use xlink:href="#Cambria-65" transform="translate(105.224609 0)"/>
      <use xlink:href="#Cambria-65" transform="translate(154.003906 0)"/>
      <use xlink:href="#Cambria-64" transform="translate(202.783203 0)"/>
      <use xlink:href="#Cambria-75" transform="translate(258.251953 0)"/>
      <use xlink:href="#Cambria-70" transform="translate(313.476562 0)"/>
     </g>
    </g>
   </g>
   <g id="FillBetweenPolyCollection_1"/>
   <g id="FillBetweenPolyCollection_2"/>
   <g id="line2d_15">
    <path d="M 73.832727 295.488 
L 78.985974 291.207662 
L 89.292468 282.719595 
L 109.905455 265.640969 
L 151.131429 232.005069 
L 233.583377 181.094895 
L 398.487273 53.568 
" clip-path="url(#p3b2d0be98d)" style="fill: none; stroke: #348abd; stroke-width: 2; stroke-linecap: round"/>
    <defs>
     <path id="ma230ba3ce1" d="M 0 3 
C 0.795609 3 1.55874 2.683901 2.12132 2.12132 
C 2.683901 1.55874 3 0.795609 3 0 
C 3 -0.795609 2.683901 -1.55874 2.12132 -2.12132 
C 1.55874 -2.683901 0.795609 -3 0 -3 
C -0.795609 -3 -1.55874 -2.683901 -2.12132 -2.12132 
C -2.683901 -1.55874 -3 -0.795609 -3 0 
C -3 0.795609 -2.683901 1.55874 -2.12132 2.12132 
C -1.55874 2.683901 -0.795609 3 0 3 
z
" style="stroke: #ffffff; stroke-width: 0.75"/>
    </defs>
    <g clip-path="url(#p3b2d0be98d)">
     <use xlink:href="#ma230ba3ce1" x="73.832727" y="295.488" style="fill: #348abd; stroke: #ffffff; stroke-width: 0.75"/>
     <use xlink:href="#ma230ba3ce1" x="78.985974" y="291.207662" style="fill: #348abd; stroke: #ffffff; stroke-width: 0.75"/>
     <use xlink:href="#ma230ba3ce1" x="89.292468" y="282.719595" style="fill: #348abd; stroke: #ffffff; stroke-width: 0.75"/>
     <use xlink:href="#ma230ba3ce1" x="109.905455" y="265.640969" style="fill: #348abd; stroke: #ffffff; stroke-width: 0.75"/>
     <use xlink:href="#ma230ba3ce1" x="151.131429" y="232.005069" style="fill: #348abd; stroke: #ffffff; stroke-width: 0.75"/>
     <use xlink:href="#ma230ba3ce1" x="233.583377" y="181.094895" style="fill: #348abd; stroke: #ffffff; stroke-width: 0.75"/>
     <use xlink:href="#ma230ba3ce1" x="398.487273" y="53.568" style="fill: #348abd; stroke: #ffffff; stroke-width: 0.75"/>
    </g>
   </g>
   <g id="line2d_16">
    <path d="M 73.832727 295.488 
L 78.985974 291.256532 
L 89.292468 283.413718 
L 109.905455 269.62858 
L 151.131429 240.733661 
L 233.583377 182.87379 
L 398.487273 156.98471 
" clip-path="url(#p3b2d0be98d)" style="fill: none; stroke: #a60628; stroke-width: 2; stroke-linecap: round"/>
    <defs>
     <path id="mf33acba964" d="M 0 3 
C 0.795609 3 1.55874 2.683901 2.12132 2.12132 
C 2.683901 1.55874 3 0.795609 3 0 
C 3 -0.795609 2.683901 -1.55874 2.12132 -2.12132 
C 1.55874 -2.683901 0.795609 -3 0 -3 
C -0.795609 -3 -1.55874 -2.683901 -2.12132 -2.12132 
C -2.683901 -1.55874 -3 -0.795609 -3 0 
C -3 0.795609 -2.683901 1.55874 -2.12132 2.12132 
C -1.55874 2.683901 -0.795609 3 0 3 
z
" style="stroke: #ffffff; stroke-width: 0.75"/>
    </defs>
    <g clip-path="url(#p3b2d0be98d)">
     <use xlink:href="#mf33acba964" x="73.832727" y="295.488" style="fill: #a60628; stroke: #ffffff; stroke-width: 0.75"/>
     <use xlink:href="#mf33acba964" x="78.985974" y="291.256532" style="fill: #a60628; stroke: #ffffff; stroke-width: 0.75"/>
     <use xlink:href="#mf33acba964" x="89.292468" y="283.413718" style="fill: #a60628; stroke: #ffffff; stroke-width: 0.75"/>
     <use xlink:href="#mf33acba964" x="109.905455" y="269.62858" style="fill: #a60628; stroke: #ffffff; stroke-width: 0.75"/>
     <use xlink:href="#mf33acba964" x="151.131429" y="240.733661" style="fill: #a60628; stroke: #ffffff; stroke-width: 0.75"/>
     <use xlink:href="#mf33acba964" x="233.583377" y="182.87379" style="fill: #a60628; stroke: #ffffff; stroke-width: 0.75"/>
     <use xlink:href="#mf33acba964" x="398.487273" y="156.98471" style="fill: #a60628; stroke: #ffffff; stroke-width: 0.75"/>
    </g>
   </g>
   <g id="patch_3">
    <path d="M 57.6 307.584 
L 57.6 41.472 
" style="fill: none; stroke: #bcbcbc; stroke-width: 1.25; stroke-linejoin: miter; stroke-linecap: square"/>
   </g>
   <g id="patch_4">
    <path d="M 414.72 307.584 
L 414.72 41.472 
" style="fill: none; stroke: #bcbcbc; stroke-width: 1.25; stroke-linejoin: miter; stroke-linecap: square"/>
   </g>
   <g id="patch_5">
    <path d="M 57.6 307.584 
L 414.72 307.584 
" style="fill: none; stroke: #bcbcbc; stroke-width: 1.25; stroke-linejoin: miter; stroke-linecap: square"/>
   </g>
   <g id="patch_6">
    <path d="M 57.6 41.472 
L 414.72 41.472 
" style="fill: none; stroke: #bcbcbc; stroke-width: 1.25; stroke-linejoin: miter; stroke-linecap: square"/>
   </g>
   <g id="text_17">
    <!-- K-Means Speedup Comparison -->
    <g style="fill: #262626" transform="translate(123.6861 35.472) scale(0.1728 -0.1728)">
     <defs>
      <path id="Cambria-4b" d="M 1325 2338 
L 1419 2338 
Q 1538 2338 1636 2375 
Q 1734 2413 1856 2516 
Q 1978 2619 2228 2900 
Q 2528 3234 2638 3384 
Q 2775 3563 2822 3684 
Q 2859 3775 2859 3859 
Q 2859 3984 2787 4042 
Q 2716 4100 2591 4113 
L 2591 4266 
L 3953 4266 
L 3953 4113 
Q 3853 4091 3756 4036 
Q 3659 3981 3557 3886 
Q 3456 3791 3259 3572 
L 2209 2391 
L 3347 738 
Q 3528 475 3631 370 
Q 3734 266 3828 217 
Q 3922 169 4028 153 
L 4028 0 
L 2650 0 
L 2650 153 
Q 2766 163 2819 197 
Q 2872 231 2872 300 
Q 2872 356 2836 436 
Q 2800 516 2722 628 
L 1994 1713 
Q 1866 1906 1806 1968 
Q 1747 2031 1678 2061 
Q 1609 2091 1494 2091 
L 1328 2091 
L 1328 781 
Q 1328 572 1342 475 
Q 1356 378 1389 322 
Q 1422 266 1486 228 
Q 1550 191 1694 153 
L 1694 0 
L 378 0 
L 378 153 
Q 572 203 637 264 
Q 703 325 723 437 
Q 744 550 744 781 
L 744 3484 
Q 744 3700 728 3798 
Q 713 3897 677 3951 
Q 641 4006 581 4039 
Q 522 4072 378 4113 
L 378 4266 
L 1694 4266 
L 1694 4113 
Q 1556 4078 1495 4043 
Q 1434 4009 1398 3957 
Q 1363 3906 1345 3803 
Q 1328 3700 1328 3484 
L 1325 2338 
z
" transform="scale(0.015625)"/>
      <path id="Cambria-2d" d="M 1788 1403 
L 338 1403 
L 338 1888 
L 1788 1888 
L 1788 1403 
z
" transform="scale(0.015625)"/>
      <path id="Cambria-4d" d="M 4841 4113 
Q 4703 4078 4642 4043 
Q 4581 4009 4545 3957 
Q 4509 3906 4492 3803 
Q 4475 3700 4475 3484 
L 4475 781 
Q 4475 572 4489 475 
Q 4503 378 4536 322 
Q 4569 266 4633 228 
Q 4697 191 4841 153 
L 4841 0 
L 3538 0 
L 3538 153 
Q 3716 197 3784 253 
Q 3853 309 3878 418 
Q 3903 528 3903 781 
L 3903 1978 
Q 3903 2450 3917 2933 
Q 3931 3416 3950 3594 
L 3897 3594 
L 2659 497 
L 2300 497 
L 1150 3644 
L 1097 3644 
Q 1113 3453 1127 2953 
Q 1141 2453 1141 1925 
L 1141 781 
Q 1141 572 1155 475 
Q 1169 378 1201 322 
Q 1234 266 1298 228 
Q 1363 191 1506 153 
L 1506 0 
L 366 0 
L 366 153 
Q 559 203 625 264 
Q 691 325 711 437 
Q 731 550 731 781 
L 731 3484 
Q 731 3700 715 3798 
Q 700 3897 664 3951 
Q 628 4006 568 4039 
Q 509 4072 366 4113 
L 366 4266 
L 1481 4266 
L 2578 1225 
L 3784 4266 
L 4841 4266 
L 4841 4113 
z
" transform="scale(0.015625)"/>
      <path id="Cambria-6e" d="M 3347 0 
L 2116 0 
L 2116 153 
Q 2238 191 2291 219 
Q 2344 247 2380 297 
Q 2416 347 2436 451 
Q 2456 556 2456 769 
L 2456 1588 
Q 2456 1806 2443 1984 
Q 2431 2163 2401 2277 
Q 2372 2391 2330 2455 
Q 2288 2519 2230 2564 
Q 2172 2609 2097 2636 
Q 2022 2663 1900 2663 
Q 1778 2663 1668 2614 
Q 1559 2566 1428 2447 
Q 1297 2328 1237 2212 
Q 1178 2097 1178 1947 
L 1178 781 
Q 1178 513 1203 408 
Q 1228 303 1298 248 
Q 1369 194 1528 153 
L 1528 0 
L 303 0 
L 303 153 
Q 425 191 476 219 
Q 528 247 564 297 
Q 600 347 620 450 
Q 641 553 641 772 
L 641 2134 
Q 641 2334 634 2456 
Q 628 2578 590 2651 
Q 553 2725 476 2761 
Q 400 2797 259 2822 
L 259 2988 
L 991 3016 
L 1181 3016 
L 1147 2506 
L 1191 2494 
Q 1422 2728 1564 2828 
Q 1706 2928 1851 2983 
Q 1997 3038 2159 3038 
Q 2328 3038 2461 2998 
Q 2594 2959 2695 2878 
Q 2797 2797 2862 2676 
Q 2928 2556 2961 2387 
Q 2994 2219 2994 1959 
L 2994 781 
Q 2994 566 3006 469 
Q 3019 372 3050 319 
Q 3081 266 3140 230 
Q 3200 194 3347 153 
L 3347 0 
z
" transform="scale(0.015625)"/>
      <path id="Cambria-43" d="M 3256 4175 
L 3256 3309 
L 2947 3309 
Q 2872 3581 2756 3742 
Q 2641 3903 2487 3972 
Q 2334 4041 2119 4041 
Q 1797 4041 1545 3827 
Q 1294 3613 1150 3183 
Q 1006 2753 1006 2144 
Q 1006 1531 1125 1098 
Q 1244 666 1475 445 
Q 1706 225 2044 225 
Q 2300 225 2462 298 
Q 2625 372 2736 531 
Q 2847 691 2947 1000 
L 3256 1000 
L 3256 106 
Q 2963 28 2655 -11 
Q 2347 -50 1978 -50 
Q 1184 -50 778 487 
Q 372 1025 372 2091 
Q 372 2759 583 3262 
Q 794 3766 1203 4041 
Q 1613 4316 2181 4316 
Q 2466 4316 2706 4286 
Q 2947 4256 3256 4175 
z
" transform="scale(0.015625)"/>
      <path id="Cambria-6d" d="M 1147 2506 
L 1191 2494 
Q 1378 2681 1498 2776 
Q 1619 2872 1731 2930 
Q 1844 2988 1942 3013 
Q 2041 3038 2144 3038 
Q 2456 3038 2653 2894 
Q 2850 2750 2925 2453 
Q 3159 2691 3304 2803 
Q 3450 2916 3601 2977 
Q 3753 3038 3928 3038 
Q 4138 3038 4289 2977 
Q 4441 2916 4545 2789 
Q 4650 2663 4698 2472 
Q 4747 2281 4747 1959 
L 4747 781 
Q 4747 544 4762 453 
Q 4778 363 4808 313 
Q 4838 263 4897 227 
Q 4956 191 5097 153 
L 5097 0 
L 3869 0 
L 3869 153 
Q 3991 191 4044 219 
Q 4097 247 4133 297 
Q 4169 347 4189 451 
Q 4209 556 4209 769 
L 4209 1588 
Q 4209 1853 4195 2026 
Q 4181 2200 4151 2303 
Q 4122 2406 4080 2465 
Q 4038 2525 3984 2569 
Q 3931 2613 3859 2638 
Q 3788 2663 3669 2663 
Q 3544 2663 3436 2613 
Q 3328 2563 3201 2444 
Q 3075 2325 3019 2204 
Q 2963 2084 2963 1922 
L 2963 781 
Q 2963 544 2978 453 
Q 2994 363 3023 313 
Q 3053 263 3112 227 
Q 3172 191 3313 153 
L 3313 0 
L 2084 0 
L 2084 153 
Q 2206 191 2259 219 
Q 2313 247 2348 297 
Q 2384 347 2404 451 
Q 2425 556 2425 769 
L 2425 1588 
Q 2425 1866 2409 2041 
Q 2394 2216 2361 2322 
Q 2328 2428 2276 2493 
Q 2225 2559 2172 2593 
Q 2119 2628 2047 2645 
Q 1975 2663 1884 2663 
Q 1756 2663 1643 2605 
Q 1531 2547 1414 2437 
Q 1297 2328 1237 2209 
Q 1178 2091 1178 1953 
L 1178 781 
Q 1178 603 1187 509 
Q 1197 416 1217 362 
Q 1238 309 1269 276 
Q 1300 244 1358 214 
Q 1416 184 1531 153 
L 1531 0 
L 306 0 
L 306 153 
Q 425 191 476 219 
Q 528 247 565 297 
Q 603 347 622 450 
Q 641 553 641 772 
L 641 2134 
Q 641 2334 634 2456 
Q 628 2578 590 2651 
Q 553 2725 476 2761 
Q 400 2797 259 2822 
L 259 2988 
L 991 3016 
L 1181 3016 
L 1147 2506 
z
" transform="scale(0.015625)"/>
      <path id="Cambria-69" d="M 1197 4213 
L 1197 3606 
L 622 3606 
L 622 4213 
L 1197 4213 
z
M 303 153 
Q 425 191 476 219 
Q 528 247 564 297 
Q 600 347 620 450 
Q 641 553 641 772 
L 641 2134 
Q 641 2334 634 2456 
Q 628 2578 590 2651 
Q 553 2725 476 2761 
Q 400 2797 259 2822 
L 259 2988 
L 988 3016 
L 1178 3016 
L 1178 781 
Q 1178 513 1203 408 
Q 1228 303 1298 248 
Q 1369 194 1528 153 
L 1528 0 
L 303 0 
L 303 153 
z
" transform="scale(0.015625)"/>
     </defs>
     <use xlink:href="#Cambria-4b"/>
     <use xlink:href="#Cambria-2d" transform="translate(59.564453 0)"/>
     <use xlink:href="#Cambria-4d" transform="translate(92.767578 0)"/>
     <use xlink:href="#Cambria-65" transform="translate(174.310547 0)"/>
     <use xlink:href="#Cambria-61" transform="translate(223.089844 0)"/>
     <use xlink:href="#Cambria-6e" transform="translate(271.917969 0)"/>
     <use xlink:href="#Cambria-73" transform="translate(327.728516 0)"/>
     <use xlink:href="#Cambria-20" transform="translate(370.697266 0)"/>
     <use xlink:href="#Cambria-53" transform="translate(392.71875 0)"/>
     <use xlink:href="#Cambria-70" transform="translate(442.328125 0)"/>
     <use xlink:href="#Cambria-65" transform="translate(497.943359 0)"/>
     <use xlink:href="#Cambria-65" transform="translate(546.722656 0)"/>
     <use xlink:href="#Cambria-64" transform="translate(595.501953 0)"/>
     <use xlink:href="#Cambria-75" transform="translate(650.970703 0)"/>
     <use xlink:href="#Cambria-70" transform="translate(706.195312 0)"/>
     <use xlink:href="#Cambria-20" transform="translate(761.810547 0)"/>
     <use xlink:href="#Cambria-43" transform="translate(783.832031 0)"/>
     <use xlink:href="#Cambria-6f" transform="translate(840.082031 0)"/>
     <use xlink:href="#Cambria-6d" transform="translate(893.158203 0)"/>
     <use xlink:href="#Cambria-70" transform="translate(976.361328 0)"/>
     <use xlink:href="#Cambria-61" transform="translate(1031.976562 0)"/>
     <use xlink:href="#Cambria-72" transform="translate(1080.804688 0)"/>
     <use xlink:href="#Cambria-69" transform="translate(1122.162109 0)"/>
     <use xlink:href="#Cambria-73" transform="translate(1149.945312 0)"/>
     <use xlink:href="#Cambria-6f" transform="translate(1192.914062 0)"/>
     <use xlink:href="#Cambria-6e" transform="translate(1245.990234 0)"/>
    </g>
   </g>
   <g id="legend_1">
    <g id="patch_7">
     <path d="M 65.3 81.292 
L 122.902188 81.292 
Q 125.102188 81.292 125.102188 79.092 
L 125.102188 49.172 
Q 125.102188 46.972 122.902188 46.972 
L 65.3 46.972 
Q 63.1 46.972 63.1 49.172 
L 63.1 79.092 
Q 63.1 81.292 65.3 81.292 
z
" style="fill: #eeeeee; opacity: 0.8; stroke: #cccccc; stroke-width: 0.5; stroke-linejoin: miter"/>
    </g>
    <g id="line2d_17">
     <path d="M 67.5 55.222 
L 78.5 55.222 
L 89.5 55.222 
" style="fill: none; stroke: #348abd; stroke-width: 2; stroke-linecap: round"/>
     <g>
      <use xlink:href="#ma230ba3ce1" x="78.5" y="55.222" style="fill: #348abd; stroke: #ffffff; stroke-width: 0.75"/>
     </g>
    </g>
    <g id="text_18">
     <!-- MPI -->
     <g style="fill: #262626" transform="translate(98.3 59.072) scale(0.11 -0.11)">
      <defs>
       <path id="Cambria-50" d="M 1328 791 
Q 1328 606 1348 497 
Q 1369 388 1411 323 
Q 1453 259 1525 223 
Q 1597 188 1750 153 
L 1750 0 
L 378 0 
L 378 153 
Q 572 203 637 264 
Q 703 325 723 437 
Q 744 550 744 781 
L 744 3484 
Q 744 3700 728 3798 
Q 713 3897 677 3951 
Q 641 4006 581 4039 
Q 522 4072 378 4113 
L 378 4266 
L 1928 4266 
Q 2659 4266 3017 3986 
Q 3375 3706 3375 3134 
Q 3375 2809 3262 2550 
Q 3150 2291 2944 2125 
Q 2738 1959 2456 1887 
Q 2175 1816 1866 1816 
Q 1519 1816 1328 1828 
L 1328 791 
z
M 1328 2088 
L 1691 2088 
Q 2044 2088 2273 2180 
Q 2503 2272 2625 2486 
Q 2747 2700 2747 3053 
Q 2747 3322 2675 3501 
Q 2603 3681 2476 3790 
Q 2350 3900 2175 3945 
Q 2000 3991 1794 3991 
Q 1484 3991 1328 3978 
L 1328 2088 
z
" transform="scale(0.015625)"/>
       <path id="Cambria-49" d="M 1331 781 
Q 1331 572 1345 475 
Q 1359 378 1392 322 
Q 1425 266 1489 228 
Q 1553 191 1697 153 
L 1697 0 
L 378 0 
L 378 153 
Q 572 203 637 264 
Q 703 325 723 437 
Q 744 550 744 781 
L 744 3484 
Q 744 3700 728 3798 
Q 713 3897 677 3951 
Q 641 4006 581 4039 
Q 522 4072 378 4113 
L 378 4266 
L 1697 4266 
L 1697 4113 
Q 1559 4078 1498 4043 
Q 1438 4009 1402 3957 
Q 1366 3906 1348 3803 
Q 1331 3700 1331 3484 
L 1331 781 
z
" transform="scale(0.015625)"/>
      </defs>
      <use xlink:href="#Cambria-4d"/>
      <use xlink:href="#Cambria-50" transform="translate(81.542969 0)"/>
      <use xlink:href="#Cambria-49" transform="translate(138.330078 0)"/>
     </g>
    </g>
    <g id="line2d_18">
     <path d="M 67.5 70.732 
L 78.5 70.732 
L 89.5 70.732 
" style="fill: none; stroke: #a60628; stroke-width: 2; stroke-linecap: round"/>
     <g>
      <use xlink:href="#mf33acba964" x="78.5" y="70.732" style="fill: #a60628; stroke: #ffffff; stroke-width: 0.75"/>
     </g>
    </g>
    <g id="text_19">
     <!-- OMP -->
     <g style="fill: #262626" transform="translate(98.3 74.582) scale(0.11 -0.11)">
      <defs>
       <path id="Cambria-4f" d="M 2044 -50 
Q 1669 -50 1361 73 
Q 1053 197 833 458 
Q 613 719 492 1125 
Q 372 1531 372 2097 
Q 372 2794 584 3294 
Q 797 3794 1192 4055 
Q 1588 4316 2109 4316 
Q 2666 4316 3045 4070 
Q 3425 3825 3617 3348 
Q 3809 2872 3809 2188 
Q 3809 1456 3590 953 
Q 3372 450 2973 200 
Q 2575 -50 2044 -50 
z
M 1016 2184 
Q 1016 1225 1295 725 
Q 1575 225 2113 225 
Q 2453 225 2690 442 
Q 2928 659 3047 1078 
Q 3166 1497 3166 2056 
Q 3166 2738 3027 3186 
Q 2888 3634 2647 3837 
Q 2406 4041 2088 4041 
Q 1806 4041 1604 3909 
Q 1403 3778 1270 3536 
Q 1138 3294 1077 2950 
Q 1016 2606 1016 2184 
z
" transform="scale(0.015625)"/>
      </defs>
      <use xlink:href="#Cambria-4f"/>
      <use xlink:href="#Cambria-4d" transform="translate(65.332031 0)"/>
      <use xlink:href="#Cambria-50" transform="translate(146.875 0)"/>
     </g>
    </g>
   </g>
  </g>
 </g>
 <defs>
  <clipPath id="p3b2d0be98d">
   <rect x="57.6" y="41.472" width="357.12" height="266.112"/>
  </clipPath>
 </defs>
</svg>
